<svg width="66" height="24" viewBox="0 0 66 24" fill="none" xmlns="http://www.w3.org/2000/svg">
<path d="M47.8906 6.89844V20H51.5234V6.89844H47.8906Z" fill="#121116"/>
<path d="M48.3125 4.68359C48.7031 5.04297 49.168 5.22266 49.707 5.22266C50.2461 5.22266 50.707 5.04297 51.0898 4.68359C51.4805 4.32422 51.6758 3.89062 51.6758 3.38281C51.6758 2.875 51.4805 2.44531 51.0898 2.09375C50.707 1.73438 50.2461 1.55469 49.707 1.55469C49.168 1.55469 48.7031 1.73438 48.3125 2.09375C47.9297 2.44531 47.7383 2.875 47.7383 3.38281C47.7383 3.89062 47.9297 4.32422 48.3125 4.68359Z" fill="#121116"/>
<path d="M60.3369 9.76953C60.7119 10.0664 60.9463 10.4219 61.04 10.8359L64.3447 10.6367C64.1963 9.43359 63.6455 8.48438 62.6924 7.78906C61.7393 7.08594 60.4346 6.73438 58.7783 6.73438C57.1064 6.73438 55.7627 7.09766 54.7471 7.82422C53.7393 8.55078 53.2354 9.54688 53.2354 10.8125C53.2354 12.7891 54.4971 14.0312 57.0205 14.5391L59.2822 15.0078C60.3994 15.2344 60.958 15.6719 60.958 16.3203C60.958 16.7031 60.7627 17.0195 60.3721 17.2695C59.9814 17.5195 59.4697 17.6445 58.8369 17.6445C57.4854 17.6445 56.6885 17.1055 56.4463 16.0273L52.8838 16.2148C53.0635 17.4648 53.665 18.4531 54.6885 19.1797C55.7119 19.8984 57.0908 20.2578 58.8252 20.2578C59.958 20.2578 60.9619 20.0781 61.8369 19.7188C62.7119 19.3594 63.3994 18.8555 63.8994 18.207C64.3994 17.5586 64.6494 16.8008 64.6494 15.9336C64.6494 14.0742 63.3916 12.8945 60.876 12.3945L58.4971 11.9258C57.8955 11.793 57.4697 11.6172 57.2197 11.3984C56.9697 11.1797 56.8447 10.9141 56.8447 10.6016C56.8447 10.2109 57.0361 9.89844 57.4189 9.66406C57.8018 9.42969 58.2744 9.3125 58.8369 9.3125C59.4697 9.3125 59.9697 9.46484 60.3369 9.76953Z" fill="#121116"/>
<path d="M47.4092 20V22.7656H35.9482V20H47.4092Z" fill="#121116"/>
<path fill-rule="evenodd" clip-rule="evenodd" d="M24.9785 19.2734C25.8066 19.9219 26.8457 20.2461 28.0957 20.2461C29.0645 20.2461 29.8613 20.0547 30.4863 19.6719C31.1191 19.2891 31.5957 18.7891 31.916 18.1719H32.0215V20H35.4551V11.1641C35.4551 10.125 35.1895 9.28125 34.6582 8.63281C34.127 7.97656 33.4316 7.49609 32.5723 7.19141C31.7207 6.88672 30.8105 6.73438 29.8418 6.73438C28.3496 6.73438 27.0996 7.05469 26.0918 7.69531C25.0918 8.32812 24.4355 9.21484 24.123 10.3555L27.4277 10.8828C27.5605 10.4453 27.8301 10.0859 28.2363 9.80469C28.6504 9.52344 29.1816 9.38281 29.8301 9.38281C30.4785 9.38281 30.9746 9.53125 31.3184 9.82812C31.6621 10.125 31.834 10.543 31.834 11.082V11.1406C31.834 11.5625 31.5879 11.8359 31.0957 11.9609C30.6113 12.0781 29.7988 12.1914 28.6582 12.3008C27.7988 12.3789 26.9941 12.5508 26.2441 12.8164C25.4941 13.0742 24.8887 13.4844 24.4277 14.0469C23.9746 14.6016 23.748 15.3672 23.748 16.3438C23.748 17.6406 24.1582 18.6172 24.9785 19.2734ZM27.7441 17.3633C27.3848 17.1055 27.2051 16.7266 27.2051 16.2266C27.2051 15.7188 27.4004 15.332 27.791 15.0664C28.1816 14.793 28.6973 14.6094 29.3379 14.5156C29.6035 14.4766 29.9043 14.4336 30.2402 14.3867C30.5762 14.332 30.8926 14.2656 31.1895 14.1875C31.4941 14.1094 31.7168 14.0234 31.8574 13.9297V15.3242C31.8574 16.0117 31.5996 16.5859 31.084 17.0469C30.5762 17.5078 29.9238 17.7383 29.127 17.7383C28.5723 17.7383 28.1113 17.6133 27.7441 17.3633Z" fill="#121116"/>
<path d="M13.9268 12.4297V20H10.2939V2.53906H13.8096V9.23047H13.9736C14.2705 8.45703 14.7471 7.84766 15.4033 7.40234C16.0674 6.95703 16.8955 6.73438 17.8877 6.73438C19.2471 6.73438 20.3408 7.17188 21.1689 8.04688C21.9971 8.92188 22.4111 10.1289 22.4111 11.668V20H18.79V12.3125C18.79 11.5 18.5869 10.8711 18.1807 10.4258C17.7744 9.97266 17.1924 9.74609 16.4346 9.74609C15.7002 9.74609 15.0986 9.98438 14.6299 10.4609C14.1611 10.9297 13.9268 11.5859 13.9268 12.4297Z" fill="#121116"/>
<path d="M8.88672 9.64062V6.89844H6.40234V3.78125H2.78125V6.89844H1V9.64062H2.78125V16.4492C2.78125 17.6289 3.13672 18.5469 3.84766 19.2031C4.56641 19.8594 5.57422 20.1875 6.87109 20.1875C7.59766 20.1875 8.34766 20.0742 9.12109 19.8477L8.54688 17.1289C8.42188 17.1602 8.27344 17.1875 8.10156 17.2109C7.9375 17.2344 7.78516 17.2461 7.64453 17.2461C6.81641 17.2461 6.40234 16.8203 6.40234 15.9688V9.64062H8.88672Z" fill="#121116"/>
</svg>
