<svg width="230" height="288" viewBox="0 0 230 288" fill="none" xmlns="http://www.w3.org/2000/svg">
<path d="M224 244H7C7 250.06 7.87578 263.996 11.3789 271.268C15.7578 280.357 23.5426 277.327 29.8677 275.307C34.9278 273.692 38.139 274.634 39.1121 275.307C38.6256 279.347 39.1121 282.377 44.4641 280.357C49.8161 278.337 61.4933 280.357 65.3857 280.357C68.4995 280.357 69.6024 276.991 69.7646 275.307L87.7668 266.723C92.7945 266.555 104.504 266.319 111.121 266.723C117.738 267.127 138.53 269.921 148.099 271.268L149.558 275.307H180.211V270.258C182.319 269.753 187.606 269.046 191.888 270.258C197.24 271.773 205.511 274.803 214.269 270.258C221.275 266.622 223.676 251.238 224 244Z" fill="#F6F6F6"/>
<g clip-path="url(#clip0_182_387)">
<path d="M88.0868 109.037C88.1834 108.996 89.0084 108.701 88.4805 108.856C88.3385 108.897 88.2004 108.952 88.0603 108.996C87.7595 109.09 87.4548 109.175 87.1501 109.255C86.4916 109.426 85.8255 109.57 85.1594 109.698C84.4327 109.84 83.7022 109.967 82.968 110.069C82.0445 110.197 81.0113 111.151 80.5628 111.914C80.0576 112.776 79.8437 114.044 80.1579 115.009C80.8997 117.3 82.8639 118.126 85.1064 117.814C87.54 117.474 89.8827 116.932 92.1478 115.97C94.0913 115.145 94.6647 112.139 93.5917 110.475C92.2879 108.457 90.1684 108.151 88.0868 109.033V109.037Z" fill="#FCCAB4"/>
<path d="M132.972 105.992C136.423 105.597 139.619 104.641 142.791 103.234C144.721 102.378 145.321 99.4215 144.235 97.7382C142.946 95.7433 140.795 95.3825 138.73 96.2968C137.878 96.6746 139.303 96.1003 138.495 96.395C138.189 96.5065 137.886 96.6274 137.578 96.7351C136.923 96.9656 136.259 97.1734 135.589 97.3585C135.01 97.5191 134.425 97.6627 133.836 97.7855C133.566 97.8421 133.293 97.895 133.021 97.9423C131.978 98.1217 133.747 97.8686 132.973 97.9574C130.89 98.1954 128.846 99.633 128.95 101.974C129.039 103.944 130.735 106.247 132.973 105.99L132.972 105.992Z" fill="#FCCAB4"/>
<path d="M65.8649 93.9354C66.5273 96.4328 67.1499 99.0493 68.1509 101.435C69.1595 103.842 70.2079 106.228 71.366 108.569C73.6709 113.229 76.3429 117.663 79.5334 121.774C85.8899 129.961 94.3714 137.359 104.545 140.199C114.211 142.898 124.443 140.847 132.542 135.002C140.641 129.157 146.141 120.869 148.521 111.353C150.065 105.176 150.378 98.713 149.774 92.3882C149.157 85.9311 147.901 79.2756 145.603 73.1906C145.058 71.7454 143.667 70.7555 142.078 71.1919C140.571 71.6057 139.674 73.2133 140.076 74.7114C140.787 77.3676 141.599 79.9935 142.231 82.6704C142.521 83.9002 142.784 85.1338 143.02 86.375C143.149 87.0513 143.268 87.7276 143.378 88.4077C143.433 88.7459 143.486 89.0859 143.537 89.426C143.527 89.3599 143.677 90.4216 143.622 90.0041C143.985 92.7074 144.174 95.4429 144.182 98.169C144.186 99.412 144.15 100.655 144.07 101.894C143.991 103.134 143.838 104.656 143.709 105.48C143.291 108.163 142.67 110.805 141.788 113.375C141.612 113.889 141.427 114.399 141.228 114.903C141.147 115.113 141.062 115.322 140.976 115.53C141.217 114.95 140.867 115.774 140.844 115.825C140.397 116.819 139.905 117.792 139.374 118.744C138.842 119.696 138.261 120.633 137.646 121.54C137.388 121.919 137.125 122.293 136.855 122.662C136.692 122.883 136.527 123.104 136.361 123.323C136.702 122.881 136.028 123.729 135.965 123.807C134.624 125.435 133.15 126.954 131.558 128.341C131.144 128.701 130.718 129.047 130.292 129.393C129.594 129.958 130.744 129.075 130.018 129.602C129.796 129.763 129.577 129.927 129.354 130.086C128.462 130.719 127.543 131.31 126.596 131.856C125.732 132.355 124.846 132.814 123.94 133.232C123.693 133.345 123.446 133.456 123.196 133.562C123.773 133.317 122.946 133.657 122.895 133.677C122.39 133.874 121.879 134.057 121.364 134.227C120.333 134.565 119.284 134.849 118.221 135.072C117.776 135.164 117.331 135.247 116.883 135.319C116.811 135.33 115.918 135.44 116.584 135.364C116.221 135.406 115.859 135.444 115.494 135.474C113.303 135.648 110.892 135.531 109.17 135.228C99.6606 133.568 91.548 127.795 85.0156 120.682C81.3633 116.705 78.1899 112.275 75.4043 107.658C74.0096 105.346 72.7134 102.973 71.4966 100.563C70.2495 98.0858 68.8113 95.6979 67.5208 93.2402C67.0382 92.3202 65.6076 92.9606 65.8668 93.9373L65.8649 93.9354Z" fill="black"/>
<path d="M87.14 55.0083C82.4418 55.4375 78.3342 57.9494 75.0534 62.0078C71.4238 66.5 69.4722 72.5774 67.8187 78.4255C66.5701 82.8427 65.9345 87.4485 65.3946 92.0588C64.7684 97.3981 64.2979 102.758 63.861 108.124C63.6305 110.954 63.4092 113.784 63.1693 116.612C62.9499 119.182 62.8524 121.792 63.458 124.283C63.9473 126.295 66.1726 126.607 67.0781 124.856C68.0661 122.943 68.3867 120.945 68.6979 118.746C69.0523 116.246 69.1704 113.675 69.3729 111.152C69.7797 106.105 70.1809 101.059 70.7096 96.031C70.7396 95.7471 70.7696 95.4632 70.8014 95.177C70.8183 95.0226 70.9027 94.2822 70.8295 94.9181C70.8933 94.3594 70.957 93.8007 71.0245 93.2421C71.182 91.9407 71.3507 90.6394 71.5363 89.3426C71.8494 87.1578 72.215 84.9798 72.6162 82.8178C73.5517 77.7941 74.8528 72.6864 77.0575 68.2828C79.4685 63.4658 82.9068 59.1303 87.38 57.1386C88.2611 56.7457 88.2218 54.9061 87.1419 55.0037L87.14 55.0083Z" fill="black"/>
<path d="M66.972 24.7794C66.2699 24.7284 65.5641 24.6113 64.9282 24.9645C64.2432 25.3442 63.6074 25.8411 62.9905 26.319C61.7339 27.292 60.7934 28.5218 59.8472 29.7894C58.0855 32.149 56.5508 34.7012 54.5978 36.9134C52.749 39.0084 50.6636 40.2345 48.1014 41.0072C45.5391 41.7798 42.7895 42.203 40.2084 43.0758C34.325 45.0669 29.8742 49.5423 28.489 55.667C27.1908 61.4062 28.2014 67.3759 29.3481 73.0509C29.6263 74.43 30.1789 75.9413 29.8345 77.0956C29.7247 77.462 29.8155 77.1655 29.8515 77.0956C29.7701 77.258 29.6755 77.4073 29.5809 77.5603C29.5393 77.6283 29.2573 77.9438 29.5184 77.6472C29.3954 77.787 29.2686 77.9211 29.1362 78.0515C28.9015 78.2857 28.6517 78.5049 28.3963 78.7183C28.2846 78.8109 28.173 78.9016 28.0613 78.9923C27.3384 79.5779 28.2468 78.8543 27.8229 79.1774C25.3647 81.0495 23.2434 83.0841 21.6008 85.7308C18.5352 90.6729 17.5644 96.8863 20.0358 102.265C21.2772 104.964 23.4989 106.801 25.6372 108.761C26.1633 109.243 26.6685 109.744 27.136 110.284C27.3555 110.535 27.1492 110.284 27.1114 110.235C27.2211 110.382 27.3271 110.535 27.4255 110.69C27.5239 110.845 27.6072 111.01 27.7075 111.164C27.9629 111.563 27.7226 111.108 27.8267 111.395C27.9478 111.729 28.0424 112.073 28.1067 112.423C28.0178 111.935 28.1162 112.827 28.1162 112.972C28.1162 113.173 28.103 113.371 28.0897 113.569C28.0575 114.07 28.1692 113.184 28.0765 113.681C28.0008 114.085 27.9043 114.486 27.7888 114.88C27.3574 116.343 26.7272 117.544 25.9003 119.088C25.1376 120.51 24.3599 121.906 23.76 123.408C22.723 126.006 22.3332 128.873 22.8649 131.63C23.4629 134.724 25.7451 137.112 28.6972 138.102C30.3322 138.65 32.1242 138.663 33.8311 138.723C34.2001 138.737 34.5691 138.75 34.9382 138.776C35.0858 138.786 36.0017 138.91 35.5153 138.823C35.926 138.897 36.3139 139.005 36.7151 139.116C36.9497 139.182 37.0595 139.373 36.6413 139.08C36.7624 139.165 36.9194 139.241 37.0519 139.309C37.5099 139.547 37.103 139.32 36.9989 139.233C37.1181 139.332 37.2336 139.432 37.3433 139.539C37.4531 139.647 37.8921 140.244 37.7029 139.919C37.5061 139.577 37.6953 139.927 37.7237 139.983C37.7899 140.11 37.8713 140.254 37.9489 140.376C38.0549 140.546 38.0814 140.856 37.9167 140.263C37.9659 140.441 38.0378 140.614 38.0851 140.794C38.1135 140.902 38.1343 141.009 38.1608 141.117C38.2933 141.65 38.1362 141.06 38.14 140.964C38.1362 141.1 38.14 141.268 38.1514 141.4C38.1608 141.519 38.2365 141.799 38.1722 141.43C38.1078 141.062 38.193 141.374 38.1362 141.563C38.106 141.665 38.0757 141.772 38.0511 141.876C37.9243 142.379 38.0492 141.857 38.1078 141.761C38.0227 141.899 37.8902 142.088 37.824 142.239C37.6594 142.617 38.0832 141.831 37.8713 142.152C37.8145 142.237 37.7123 142.284 37.6518 142.366C37.9319 141.982 38.0208 142.131 37.7767 142.267C37.6613 142.332 37.5364 142.405 37.4247 142.475C37.016 142.734 37.964 142.354 37.2828 142.528C37.1825 142.555 37.0822 142.589 36.9819 142.613C36.8797 142.64 36.7775 142.66 36.6734 142.679C36.4464 142.721 36.5353 142.711 36.9459 142.649C36.7681 142.847 35.7046 142.643 35.4585 142.623C35.2258 142.602 34.9665 142.551 34.7338 142.572C34.3629 142.604 35.2277 142.717 34.8757 142.585C34.7205 142.526 34.5408 142.513 34.3799 142.466C34.2531 142.428 34.1301 142.384 34.0052 142.339C34.0298 142.349 34.4234 142.543 34.1755 142.4C33.9825 142.288 33.7914 142.171 33.5984 142.06C33.3921 141.941 33.1764 141.844 32.9739 141.718C33.2842 141.912 32.8282 141.568 32.726 141.457C31.935 140.575 30.0786 140.949 29.8893 142.205C29.6585 143.728 29.9121 145.061 30.9642 146.24C31.8536 147.234 33.1707 148.061 34.4556 148.432C37.4058 149.28 40.8915 148.059 42.7328 145.681C44.6951 143.146 44.6327 139.477 42.939 136.81C40.9123 133.621 37.5893 132.674 33.9844 132.574C33.1934 132.551 32.4062 132.536 31.6171 132.485C30.9945 132.446 31.3654 132.465 31.5111 132.485C31.3105 132.455 31.108 132.414 30.9093 132.368C30.7106 132.323 29.7569 131.926 30.2621 132.191C29.984 132.045 29.7228 131.89 29.4636 131.713C29.9499 132.045 29.5449 131.733 29.3406 131.537C29.2459 131.446 29.0302 131.078 29.2365 131.433C29.4427 131.788 29.2232 131.395 29.174 131.303C29.1248 131.21 29.0718 131.114 29.0151 131.025C28.6593 130.456 29.1797 131.613 28.9791 130.966C28.9034 130.723 28.8239 130.483 28.7653 130.233C28.682 129.878 28.6972 129.468 28.7085 130.048C28.6972 129.423 28.648 128.819 28.699 128.191C28.7123 128.033 28.7293 127.874 28.7482 127.717C28.6707 128.397 28.7161 127.95 28.7482 127.806C28.8202 127.49 28.875 127.171 28.9545 126.856C29.1154 126.225 29.3273 125.616 29.5544 125.006C29.3462 125.567 29.5809 124.951 29.6812 124.74C29.8477 124.39 30.0294 124.048 30.2091 123.706C30.6179 122.924 31.038 122.15 31.4411 121.364C32.268 119.747 33.0704 118.064 33.5473 116.307C34.5672 112.555 33.7668 108.943 31.1818 106.034C30.1902 104.917 29.0075 103.991 27.8986 103C27.3612 102.52 26.8351 102.025 26.3582 101.486C26.2428 101.358 26.1311 101.226 26.0233 101.092C26.1008 101.186 26.3109 101.52 26.0138 101.069C25.8302 100.789 25.641 100.515 25.4726 100.224C25.3042 99.9335 25.1641 99.6444 25.0165 99.3497C24.956 99.2288 24.85 98.8491 25.0203 99.3648C24.9692 99.2118 24.9049 99.0607 24.8538 98.9076C24.6437 98.288 24.5283 97.6608 24.3845 97.0261C24.5094 97.5777 24.375 96.941 24.358 96.7011C24.3372 96.4159 24.3239 96.1306 24.3201 95.8453C24.3163 95.5166 24.3258 95.1879 24.3447 94.8592C24.3542 94.6948 24.3731 94.5305 24.3826 94.3642C24.4148 93.8088 24.3182 94.5966 24.3902 94.2566C24.6608 92.9549 24.9446 91.6968 25.4612 90.465C25.2587 90.9487 25.5899 90.2119 25.6561 90.0759C25.8094 89.7623 25.9722 89.4525 26.1444 89.1483C26.4888 88.5343 26.8672 87.9411 27.2779 87.3687C27.3176 87.314 27.645 86.8738 27.4539 87.1231C27.2817 87.348 27.5523 87.0041 27.5617 86.9909C27.7907 86.7189 28.0197 86.4468 28.2581 86.1842C28.7388 85.6591 29.2478 85.1603 29.7853 84.6937C30.8885 83.734 32.1431 82.9444 33.1593 81.8827C34.5464 80.4337 35.3904 78.6805 35.4567 76.6554C35.5134 74.8682 34.9571 73.0547 34.5691 71.3223C33.9182 68.4187 33.4034 65.84 33.1991 63.1933C33.0912 61.7878 33.0628 60.3728 33.1612 58.9654C33.1839 58.6556 33.2142 58.3458 33.2464 58.0359C33.3013 57.5013 33.2767 57.8168 33.2577 57.932C33.2842 57.7582 33.3126 57.5844 33.3448 57.4125C33.4678 56.7268 33.6305 56.0486 33.8368 55.3836C33.9257 55.0945 34.0241 54.8074 34.1301 54.524C34.1471 54.4768 34.3477 53.9856 34.2455 54.2236C34.1434 54.4617 34.3629 53.9762 34.3837 53.9327C34.6865 53.2998 35.0366 52.6915 35.4321 52.1135C35.6762 51.7564 36.0395 51.3049 36.505 50.8232C36.9705 50.3414 37.5496 49.8144 38 49.4932C42.5189 46.2628 48.7202 46.4876 53.6252 43.5311C56.4524 41.8271 58.5699 39.1879 60.343 36.4524C61.1586 35.1943 61.8569 33.8605 62.6177 32.5702C63.3784 31.2799 64.281 30.1068 65.055 28.8392C65.4392 28.2101 65.8536 27.6018 66.3078 27.0199C66.8319 26.3455 66.8849 25.7353 67.0685 24.923C67.0855 24.8474 67.0344 24.7851 66.9587 24.7794H66.972Z" fill="black"/>
<path d="M70.2628 20.1831C71.8808 19.2064 73.4533 18.275 74.918 17.0716C76.3827 15.8682 77.8152 14.9104 79.3877 14.0301C82.336 12.3771 85.7139 11.2039 89.0236 11.0358C92.1687 10.8752 95.3782 11.4155 98.1031 12.7889C99.5943 13.5408 100.696 14.2965 101.825 15.4394C102.955 16.5823 103.614 17.8689 104.511 19.3367C105.408 20.8046 106.462 22.1157 107.998 22.8316C109.385 23.4777 110.894 23.7101 112.417 23.7384C115.536 23.797 118.675 23.0999 121.708 22.4576C123.044 22.1742 124.379 21.8738 125.726 21.6434C125.855 21.6207 125.985 21.5999 126.116 21.5791C126.159 21.5716 126.784 21.4885 126.328 21.5451C125.872 21.6018 126.451 21.5338 126.506 21.53C126.674 21.5168 126.84 21.4998 127.007 21.4885C127.777 21.4393 128.536 21.4715 129.304 21.53C129.719 21.5621 128.899 21.4582 129.304 21.5262C129.494 21.5584 129.683 21.5905 129.87 21.6283C130.167 21.6887 130.461 21.7605 130.752 21.8417C131.076 21.9324 131.392 22.0458 131.71 22.1534C131.842 22.1988 132.302 22.4028 131.798 22.178C131.967 22.2536 132.133 22.331 132.298 22.4123C132.89 22.7051 133.46 23.0432 134.003 23.4211C134.124 23.5061 134.243 23.5911 134.361 23.6799C134.709 23.9368 133.903 23.268 134.427 23.7422C134.701 23.9897 134.985 24.2277 135.252 24.4846C135.519 24.7416 135.778 25.0136 136.028 25.2932C136.151 25.4292 136.813 26.2472 136.469 25.7957C136.932 26.4059 137.356 27.0501 137.739 27.7132C137.933 28.0514 138.119 28.3952 138.295 28.7428C138.384 28.9185 138.469 29.0961 138.552 29.2736C138.586 29.3454 138.878 30.0123 138.749 29.7063C138.59 29.3284 138.883 30.0539 138.878 30.0406C138.95 30.2277 139.018 30.4147 139.084 30.6036C139.232 31.0211 139.366 31.4424 139.489 31.8674C139.714 32.6477 139.9 33.4411 140.045 34.2402C140.085 34.4593 140.223 35.5588 140.165 34.9524C140.204 35.3605 140.252 35.7685 140.282 36.1766C140.339 36.9965 140.356 37.8201 140.329 38.6419C140.314 39.0934 140.288 39.5449 140.248 39.9945C140.233 40.1589 140.216 40.3214 140.199 40.4838C140.123 41.2452 140.242 40.2401 140.153 40.8182C139.992 41.8629 140.104 42.8207 140.891 43.6066C141.608 44.3226 142.704 44.6267 143.684 44.3434C145.862 43.7162 148.095 43.0493 150.205 42.9983C150.692 42.987 151.18 43.0002 151.664 43.038C151.857 43.0531 152.05 43.0701 152.243 43.0946C151.647 43.0191 152.584 43.1645 152.616 43.1702C153.568 43.3553 154.488 43.6387 155.394 43.9806C155.941 44.1866 155.621 44.077 155.504 44.0241C155.769 44.1431 156.032 44.2678 156.291 44.4C156.681 44.5984 157.063 44.81 157.438 45.0348C157.813 45.2596 158.182 45.4976 158.541 45.747C158.537 45.7432 159.31 46.3081 158.893 45.9888C159.126 46.1664 159.349 46.3553 159.571 46.5461C160.235 47.1166 160.861 47.7287 161.446 48.3786C161.641 48.5939 161.825 48.8169 162.014 49.036C162.053 49.0832 162.356 49.463 162.097 49.1286C162.477 49.6198 162.826 50.1393 163.159 50.6645C165.333 54.1027 166.432 57.8413 167.127 62.0144C167.18 62.3318 167.227 62.6511 167.276 62.9704C167.282 63.0044 167.356 63.5333 167.305 63.1555C167.373 63.6693 167.43 64.1832 167.485 64.6989C167.602 65.7739 167.725 66.8488 167.895 67.918C168.198 69.8147 168.773 71.7643 169.909 73.3399C171.343 75.3292 173.26 76.2567 175.419 77.2636C176.157 77.6094 176.874 78.0004 177.561 78.4406C177.94 78.6843 178.311 78.9412 178.67 79.2095C178.262 78.9034 178.725 79.2605 178.822 79.3398C179.064 79.5401 179.3 79.746 179.531 79.9595C180.125 80.5035 180.684 81.0854 181.204 81.6994C181.176 81.6654 181.73 82.3436 181.484 82.03C181.238 81.7164 181.766 82.4135 181.74 82.3776C182.025 82.7762 182.296 83.1842 182.553 83.6036C182.994 84.3253 183.382 85.0753 183.736 85.8423C183.973 86.358 183.799 85.9953 183.755 85.8838C183.852 86.1313 183.948 86.3788 184.037 86.63C184.185 87.0475 184.317 87.4688 184.436 87.8939C184.555 88.3189 184.658 88.7478 184.747 89.1804C184.79 89.3958 184.83 89.613 184.866 89.8303C184.89 89.9795 184.951 90.5595 184.89 89.9738C184.979 90.8504 185.027 91.7232 184.996 92.6054C184.981 93.0456 184.938 93.482 184.898 93.9203C184.949 93.3705 184.913 93.8201 184.892 93.9354C184.839 94.2206 184.79 94.504 184.73 94.7893C184.491 95.8925 184.156 96.9731 183.793 98.0424C182.358 102.265 180.835 106.29 181.632 110.817C182.428 115.343 185.91 119.11 190.55 118.917C192.664 118.829 194.678 118.037 196.226 116.586C196.977 115.883 197.628 114.946 197.919 113.955C198.258 112.804 198.116 111.816 197.917 110.666C197.685 109.322 196.033 108.569 194.808 108.903C193.387 109.294 192.81 110.66 193.043 112.007L192.965 111.739C192.946 111.988 192.948 112.001 192.969 111.78L192.986 111.623C192.958 111.746 192.923 111.867 192.88 111.986C193.065 111.299 192.74 112.06 192.672 112.254C192.566 112.549 193.117 111.852 192.687 112.219C192.592 112.3 192.49 112.404 192.403 112.492C191.998 112.897 192.723 112.402 192.411 112.479C192.242 112.521 192.028 112.7 191.873 112.789C191.692 112.893 191.273 112.972 191.881 112.795C191.745 112.834 191.612 112.887 191.474 112.927C191.285 112.982 190.163 113.165 190.98 113.088C190.692 113.114 190.407 113.133 190.119 113.123C189.892 113.116 189.337 112.942 190.04 113.135C189.835 113.08 189.627 113.027 189.423 112.976C189.19 112.918 189.12 112.738 189.529 113.027C189.383 112.923 189.201 112.84 189.048 112.748C188.647 112.508 189.479 113.191 188.914 112.653C188.791 112.536 188.664 112.424 188.545 112.302C188.425 112.179 188.316 112.054 188.206 111.926C188.615 112.409 188.121 111.771 188.073 111.695C187.984 111.552 187.901 111.404 187.824 111.257C187.778 111.172 187.504 110.452 187.701 111.021C187.561 110.613 187.428 110.208 187.332 109.787C187.286 109.587 187.173 108.68 187.224 109.268C187.144 108.387 187.154 107.518 187.235 106.638C187.18 107.229 187.235 106.659 187.26 106.508C187.307 106.243 187.36 105.981 187.421 105.718C187.532 105.223 187.663 104.734 187.807 104.246C188.124 103.16 188.507 102.095 188.883 101.029C189.587 99.0436 190.272 97.0506 190.566 94.9574C191.078 91.2811 190.664 87.5482 189.252 84.1024C187.81 80.5829 185.598 77.3827 182.614 74.9891C181.111 73.7838 179.533 72.7826 177.77 72.0005C176.914 71.6208 175.993 71.2751 175.241 70.7045C175.58 70.9615 175.147 70.5968 175.073 70.5232C174.918 70.3683 174.763 70.2096 174.628 70.0358C174.942 70.4382 174.668 70.0679 174.626 69.9867C174.507 69.7562 174.369 69.5295 174.244 69.3028C173.852 68.5868 174.339 69.6069 174.174 69.146C174.098 68.9363 174.026 68.7266 173.962 68.5112C173.845 68.1202 173.748 67.7253 173.665 67.3267C173.582 66.9281 173.514 66.5163 173.449 66.1082C173.313 65.2354 173.487 66.4502 173.425 65.9231C173.392 65.6511 173.36 65.379 173.332 65.107C173.092 62.9194 172.819 60.7317 172.367 58.5762C171.51 54.4862 170.028 50.3905 167.634 46.9353C164.962 43.0776 161.317 40.1003 156.931 38.3944C154.815 37.5727 152.469 37.1533 150.2 37.2043C147.435 37.2685 144.774 38.0147 142.152 38.8195C143.329 39.9945 144.506 41.1696 145.685 42.3465C146.58 35.7591 145.363 28.6464 141.277 23.2473C139.243 20.559 136.688 18.4488 133.519 17.236C130.349 16.0232 127.285 16.1289 124.153 16.741C121.143 17.3286 118.187 18.1333 115.159 18.6377C114.377 18.7681 115.428 18.6094 114.964 18.668C114.763 18.6925 114.563 18.7171 114.362 18.736C114.012 18.7719 113.66 18.8002 113.308 18.8191C112.583 18.8569 111.861 18.8493 111.138 18.7813C110.74 18.7435 111.707 18.9173 111.096 18.77C110.973 18.7397 110.846 18.7209 110.721 18.6906C110.547 18.6491 109.707 18.2996 110.275 18.5886C110.072 18.4866 109.881 18.3619 109.681 18.2599C109.236 18.0332 109.947 18.5981 109.664 18.2297C109.514 18.037 109.278 17.8613 109.139 17.6894C107.915 16.1818 107.154 14.3777 105.854 12.9042C104.679 11.5723 103.237 10.4351 101.712 9.53204C98.5327 7.65045 94.7631 6.66621 91.0768 6.62087C86.6979 6.56608 82.3814 7.86582 78.5627 9.95521C76.606 11.0264 74.7836 12.328 73.071 13.7524C71.2828 15.241 70.066 16.9129 69.0668 19.0042C68.7129 19.7448 69.4604 20.6686 70.2533 20.1887L70.2628 20.1831Z" fill="black"/>
<path d="M193.554 131.909C194.933 132.499 195.832 133.73 196.205 135.03C196.578 136.33 196.424 137.769 195.843 138.778C195.391 139.562 195.064 139.951 194.36 140.58C193.968 140.93 193.951 140.93 193.461 141.232C193.268 141.351 193.073 141.464 192.872 141.57C192.711 141.657 192.549 141.738 192.384 141.818C192.102 141.944 192.051 141.969 192.229 141.895C191.372 142.254 190.458 142.492 189.547 142.666C188.951 142.779 189.097 142.76 188.425 142.813C187.808 142.861 187.191 142.872 186.573 142.859C182.099 142.766 177.425 141.712 173.126 143.469C168.412 145.394 166.129 149.935 165.74 154.808C165.499 157.819 166.438 160.522 168.985 162.268C170.932 163.602 173.506 163.9 175.811 163.915C177.345 163.925 178.231 161.493 176.651 160.821C175.782 160.45 174.902 160.099 174.058 159.674C173.671 159.478 173.29 159.266 172.927 159.03C172.711 158.89 172.507 158.735 172.289 158.599C172.049 158.427 172.013 158.406 172.177 158.54C172.081 158.463 171.99 158.384 171.901 158.299C171.755 158.157 171.608 158.019 171.477 157.864C171.793 158.236 171.341 157.619 171.32 157.586C171.243 157.466 171.161 157.226 171.12 156.978C170.946 155.966 171.12 154.541 171.22 154.01C171.315 153.51 171.434 153.015 171.585 152.527C171.653 152.306 171.729 152.089 171.81 151.874C171.986 151.401 171.528 152.395 171.916 151.628C172.143 151.178 172.384 150.744 172.668 150.326C172.951 149.909 172.265 150.742 172.827 150.115C173.073 149.841 173.328 149.586 173.597 149.337C173.977 148.983 174.759 148.568 175.36 148.369C175.858 148.205 176.367 148.088 176.882 147.995C177.397 147.903 176.248 148.037 177.166 147.954C177.557 147.918 177.947 147.889 178.341 147.876C182.85 147.723 187.296 148.685 191.735 147.412C195.972 146.197 200.022 143.216 200.574 138.587C201.072 134.429 198.572 130.069 194.155 129.695C193.022 129.599 192.477 131.444 193.555 131.905L193.554 131.909Z" fill="black"/>
<path d="M137.765 125.805C136.883 126.181 136.408 127.103 136.056 127.94C135.653 128.902 135.256 129.882 134.968 130.885C134.414 132.822 134.179 134.926 134.084 136.932C133.891 141.053 134.677 145.001 136.446 148.723C138.997 154.09 143.17 158.845 148.748 161.123C152.331 162.585 156.955 163.233 160.273 160.877C161.41 160.069 161.456 158.008 159.851 157.66C158.246 157.313 156.56 157.175 154.857 157.076C154.507 157.056 154.155 157.027 153.807 156.98C154.333 157.052 153.358 156.886 153.254 156.863C152.563 156.717 151.882 156.523 151.218 156.285C151.065 156.23 150.913 156.17 150.76 156.113C150.361 155.962 151.121 156.281 150.739 156.103C150.448 155.969 150.158 155.833 149.872 155.684C149.238 155.355 148.627 154.983 148.037 154.579C147.778 154.401 147.522 154.218 147.267 154.035C147.204 153.989 146.812 153.687 147.076 153.895C147.339 154.103 146.954 153.793 146.896 153.744C146.39 153.319 145.9 152.882 145.431 152.418C144.998 151.987 144.581 151.539 144.182 151.078C143.985 150.85 143.796 150.615 143.605 150.385C143.285 150 143.548 150.315 143.609 150.394C143.474 150.217 143.342 150.039 143.211 149.86C142.528 148.913 141.906 147.925 141.344 146.903C139.873 144.224 138.883 141.141 138.583 138.075C138.38 136.009 138.439 133.942 138.666 131.881C138.768 130.949 138.829 130.014 138.974 129.089C139.135 128.076 139.334 127.031 138.817 126.085C138.602 125.688 138.138 125.65 137.765 125.809V125.805Z" fill="black"/>
<path d="M98.0313 133.303C97.8289 134.265 97.545 135.242 97.4277 136.216C97.3047 137.242 97.3728 138.31 97.3274 139.345C97.2403 141.287 97.0435 143.229 96.7218 145.146C96.2336 148.05 95.3612 151.235 94.169 153.617C93.8284 154.296 93.4537 154.957 93.0279 155.586C92.9314 155.729 92.8311 155.871 92.729 156.013C92.4754 156.36 92.9314 155.779 92.657 156.102C92.4148 156.387 92.1669 156.666 91.8963 156.927C91.7582 157.061 91.5614 157.186 91.444 157.337C91.198 157.653 91.7506 157.133 91.5122 157.294C91.3456 157.407 91.1829 157.52 91.0088 157.622C90.8347 157.724 90.6417 157.821 90.4562 157.919C90.3673 157.966 90.0305 158.112 90.3995 157.953C90.7988 157.781 90.3408 157.972 90.25 158.002C89.7788 158.157 89.3057 158.289 88.8193 158.386C88.702 158.408 88.5752 158.418 88.4617 158.452C88.1173 158.557 88.9764 158.414 88.6093 158.435C88.2895 158.452 87.9716 158.491 87.6499 158.499C87.1068 158.512 86.575 158.461 86.0357 158.425C85.6534 158.401 86.4785 158.533 86.1038 158.431C85.9676 158.393 85.82 158.382 85.6799 158.353C85.3185 158.28 84.9608 158.191 84.6051 158.087C84.2739 157.989 83.9503 157.87 83.6248 157.758C83.1574 157.598 83.4829 157.705 83.5851 157.751C83.3618 157.654 83.1404 157.549 82.9228 157.441C82.1904 157.074 81.4884 156.648 80.8222 156.171C79.5298 155.248 77.9042 153.812 76.3165 152.665C75.0468 151.747 73.0503 153.283 73.601 154.749C74.3371 156.704 75.5142 158.471 77.1586 159.793C78.6593 161 80.2375 161.952 82.0239 162.674C84.7148 163.76 87.8278 164.089 90.6587 163.371C97.2422 161.703 99.8423 154.282 101.014 148.333C101.485 145.942 101.704 143.58 101.587 141.143C101.525 139.821 101.402 138.504 101.25 137.189C101.099 135.874 100.614 134.603 100.138 133.307C99.7969 132.381 98.2679 132.162 98.0276 133.307L98.0313 133.303Z" fill="black"/>
<path d="M65.1913 134.414C67.3411 136.936 68.7357 140.408 68.7319 143.703C68.73 145.258 68.4689 146.469 67.9107 148.084C67.835 148.303 67.7555 148.522 67.6646 148.736C67.7082 148.634 67.8482 148.373 67.6325 148.785C67.4546 149.125 67.2881 149.467 67.0913 149.796C66.8945 150.124 66.6825 150.444 66.4535 150.75C66.7374 150.368 66.4346 150.769 66.3532 150.857C66.1735 151.056 65.9975 151.256 65.8082 151.447C65.5679 151.689 65.2935 151.898 65.0532 152.136C64.7429 152.444 65.1421 152.074 65.197 152.034C65.0589 152.136 64.9207 152.238 64.7788 152.337C64.2584 152.697 63.7096 153.019 63.1476 153.308C62.894 153.438 62.6348 153.555 62.3774 153.678C61.7718 153.967 62.9716 153.459 62.3396 153.695C62.2184 153.74 62.0973 153.789 61.9743 153.835C61.2874 154.097 60.5967 154.345 59.889 154.543C59.2285 154.726 58.5586 154.876 57.8831 154.989C57.8301 154.998 57.1526 155.081 57.6541 155.029C58.1556 154.976 57.4724 155.044 57.4213 155.049C57.0088 155.089 56.5925 155.115 56.178 155.127C55.5176 155.144 54.8685 155.104 54.21 155.063C54.017 155.051 53.5136 154.964 54.2705 155.083C54.1002 155.057 53.9318 155.032 53.7634 155.002C53.3925 154.936 53.0254 154.855 52.6602 154.758C52.2647 154.653 51.8729 154.53 51.4888 154.386C51.4188 154.36 50.8624 154.067 51.2731 154.305C51.6837 154.543 50.9627 154.144 50.8851 154.105C50.518 153.916 50.1622 153.706 49.8197 153.478C49.7043 153.4 49.5926 153.319 49.4772 153.24C48.9379 152.873 49.8803 153.576 49.4185 153.187C49.1195 152.935 48.7941 152.705 48.4799 152.471C49.0874 152.918 48.4989 152.474 48.4023 152.389C48.0693 152.1 47.7533 151.791 47.4581 151.464C46.6425 150.565 45.9404 150.088 44.7709 149.735C43.8323 149.452 43.0035 150.079 42.6836 150.918C41.8018 153.23 43.38 155.435 44.9109 157.09C46.2167 158.499 48.1374 159.432 49.9219 160.067C53.2544 161.253 57.0296 161.157 60.434 160.35C63.615 159.595 66.762 158.03 69.0499 155.658C71.8259 152.779 73.2547 148.753 72.8932 144.776C72.6851 142.496 72.0568 140.301 70.9441 138.291C69.8314 136.281 67.9693 134.609 65.9691 133.405C65.3162 133.012 64.7372 133.878 65.1913 134.41V134.414Z" fill="black"/>
<path d="M98.1807 53.9402C95.749 53.7967 93.2379 54.0536 90.967 53.5416C88.3783 52.9598 86.467 52.2929 84.3249 50.893C84.0826 50.7344 83.8499 50.5681 83.6133 50.4038C83.2065 50.1204 83.4468 50.2829 83.5357 50.3527C83.4071 50.2526 83.2822 50.1487 83.1573 50.0429C82.6577 49.6235 82.1903 49.1739 81.7399 48.7035C81.5431 48.4995 81.3482 48.2936 81.1608 48.082C81.053 47.9611 80.9489 47.8383 80.8448 47.7155C80.8051 47.6683 80.4947 47.2734 80.6707 47.5039C80.7597 47.6192 80.402 47.1204 80.3093 46.9825C80.1087 46.6821 79.9194 46.3723 79.7416 46.0587C79.6034 45.8131 79.4728 45.5638 79.3498 45.3106C79.2798 45.1651 79.2117 45.0197 79.1474 44.8723C79.1928 44.9781 79.2931 45.2879 79.1341 44.8157C78.9316 44.213 78.7405 43.6179 78.6194 42.9926C78.5967 42.8755 78.5778 42.7584 78.5588 42.6394C78.4907 42.2294 78.5891 43.0285 78.5588 42.6129C78.5399 42.3333 78.5134 42.0556 78.5059 41.776C78.4983 41.4568 78.5021 41.1356 78.5191 40.8182C78.5286 40.6614 78.6383 39.8113 78.5532 40.3157C78.6629 39.6545 78.8294 39.0141 79.0509 38.3812C79.0736 38.3151 79.2647 37.8693 79.1379 38.1507C79.0111 38.4322 79.276 37.8863 79.3044 37.8334C79.4464 37.5651 79.6072 37.3101 79.7718 37.0532C79.8513 36.9285 79.9403 36.8038 80.016 36.6753C80.3566 36.0935 79.8475 36.8472 80.0917 36.5525C80.3093 36.2899 80.5515 36.0651 80.788 35.8214C80.8335 35.7761 81.1306 35.5362 80.8316 35.7648C80.9527 35.6722 81.0851 35.5928 81.2119 35.5059C81.7342 35.1451 82.1732 34.8334 82.476 34.2515C83.1005 33.0538 82.5744 31.5595 81.2233 31.176C79.4615 30.6773 77.5218 32.0866 76.3334 33.2749C75.145 34.4631 74.4354 35.9178 73.9472 37.4574C73.0142 40.4007 73.1713 43.7842 74.3256 46.6387C76.7346 52.5914 82.7201 57.0989 89.1655 57.7091C92.4128 58.0151 96.3432 57.6713 98.703 55.1984C99.159 54.7205 98.8146 53.9799 98.1807 53.9421V53.9402Z" fill="black"/>
<path d="M101.54 135.174C102.024 138.542 102.416 141.942 102.789 145.326C102.997 147.213 103.141 149.108 103.404 150.99C103.574 152.212 103.799 154.086 103.945 155.582C104.091 157.078 105.192 158.278 106.808 158.061C108.424 157.843 109.111 156.415 108.909 154.911C107.964 147.897 106.257 140.883 103.402 134.39C102.897 133.239 101.392 134.146 101.54 135.174Z" fill="black"/>
<path d="M107.204 154.137C102.053 155.694 99.3938 160.656 98.7599 165.714C98.406 168.536 98.6236 171.366 98.7769 174.194C98.9378 177.171 99.1119 180.149 99.3011 183.126C100.041 194.789 101.407 206.44 102.811 218.041C103.201 221.254 103.606 224.466 104.026 227.676C104.253 229.408 104.486 231.14 104.721 232.873C104.969 234.7 105.029 236.564 105.93 238.202C106.956 240.067 110.057 239.708 110.549 237.599C110.901 236.092 110.644 234.737 110.447 233.228C110.25 231.718 110.063 230.268 109.876 228.785C109.516 225.945 109.172 223.106 108.837 220.263C108.184 214.703 107.58 209.137 107.026 203.566C105.904 192.317 104.965 181.048 103.903 169.792C103.65 167.104 103.44 164.38 104.463 161.816C105.29 159.744 106.848 157.738 108.343 156.085C109.092 155.257 108.377 153.78 107.205 154.133L107.204 154.137Z" fill="black"/>
<path d="M89.5761 161.04C88.4842 161.138 87.5815 161.658 86.7035 162.304C85.6532 163.074 84.6105 163.923 83.7249 164.875C81.9896 166.743 80.2259 168.591 78.519 170.486C75.0598 174.328 71.7614 178.329 68.3874 182.249C67.0532 183.8 67.9086 186.292 70.0829 186.337C74.1193 186.419 78.1652 187.237 81.8628 188.88V184.696C78.5323 186.855 75.3418 189.184 72.1721 191.567C71.0272 192.426 69.7423 193.21 68.7299 194.228C67.9881 194.975 67.4904 195.981 67.7856 197.055C67.901 197.478 68.1565 197.929 68.3306 198.337C68.5501 198.853 68.7696 199.367 68.9891 199.883C69.044 200.013 69.1008 200.143 69.1557 200.276C69.3033 200.623 68.9929 199.886 69.1235 200.198C69.2673 200.544 69.413 200.888 69.5549 201.233C70.3649 203.204 71.1634 205.178 71.9658 207.15C73.614 211.195 75.1771 215.289 76.9408 219.286C77.8756 221.402 78.7745 223.544 79.7661 225.634C80.2714 226.699 80.875 227.729 81.4333 228.768C82.0483 229.912 82.7749 230.859 83.6038 231.856C84.4327 232.854 86.448 232.076 86.308 230.738C86.2096 229.788 86.1717 228.817 85.8917 227.901C85.6381 227.067 85.3675 226.238 85.1044 225.407C84.5575 223.673 83.8801 222.004 83.2064 220.316C81.8628 216.951 80.436 213.632 78.9864 210.313C76.7781 205.252 74.5867 200.183 72.3651 195.128L72.6168 197.055C72.1986 198.192 71.9204 198.092 72.3916 197.646C72.5392 197.506 72.6963 197.378 72.8533 197.249C73.3321 196.854 73.2696 196.915 73.8601 196.473C74.8763 195.709 75.8697 194.92 76.8821 194.151C79.3006 192.313 81.7815 190.56 84.3134 188.884C85.6646 187.988 86.1093 185.478 84.3134 184.699C79.7869 182.74 75.0276 181.637 70.0848 181.552L71.7803 185.64C75.1431 181.711 78.5985 177.842 81.8723 173.839C83.4959 171.853 85.0628 169.819 86.6562 167.809C87.4623 166.792 88.1322 165.727 88.7586 164.593C89.3301 163.56 89.8429 162.426 89.7634 161.234C89.7577 161.14 89.682 161.036 89.5742 161.045L89.5761 161.04Z" fill="black"/>
<path d="M154.978 161.72C154.325 162.613 154.758 163.813 155.063 164.754C155.388 165.753 155.782 166.705 156.215 167.663C157.069 169.545 157.962 171.457 159.054 173.215C161.277 176.797 163.823 180.183 166.612 183.345L167.742 179.074C165.672 179.47 163.652 180.237 161.783 181.201C159.913 182.164 157.818 183.449 156.509 185.087C155.517 186.33 155.493 188.113 156.617 189.296C157.381 190.101 158.464 190.622 159.398 191.204C161.431 192.466 163.465 193.728 165.497 194.99L164.585 191.516C161.548 196.973 159.071 202.76 157.252 208.735C156.393 211.561 155.599 214.457 155.167 217.382C154.925 219.025 154.825 220.571 155.076 222.218C155.199 223.025 155.37 223.863 155.742 224.596C156.115 225.329 156.776 225.724 157.389 226.248C158.344 227.062 160.303 226.623 160.157 225.103C160.085 224.345 160.345 223.705 160.206 222.879C160.119 222.363 160.059 221.861 160.061 221.23C160.064 220.034 160.146 218.844 160.328 217.809C160.812 215.037 161.554 212.294 162.379 209.608C164.035 204.209 166.253 199.023 168.979 194.077C169.653 192.855 169.263 191.34 168.067 190.603C166.656 189.736 165.246 188.867 163.834 188C163.155 187.582 162.475 187.165 161.796 186.745C161.482 186.553 161.17 186.36 160.856 186.165C160.647 186.035 160.439 185.907 160.231 185.776C160.443 185.95 160.602 186.167 160.712 186.43V187.775C160.617 188.115 160.316 188.281 160.729 188C160.897 187.885 161.047 187.724 161.204 187.596C161.474 187.375 161.739 187.182 162.065 186.959C162.799 186.455 163.565 185.999 164.358 185.597C165.836 184.847 167.42 184.375 169.104 184.004C171.07 183.572 171.472 181.072 170.234 179.733C167.568 176.848 165.238 173.765 163.054 170.504C161.957 168.867 160.857 167.242 159.86 165.54C159.364 164.692 158.855 163.864 158.331 163.033C157.739 162.09 157.181 161.28 156.003 161.136C155.572 161.083 155.207 161.41 154.978 161.724V161.72Z" fill="black"/>
<path d="M54.0851 155.558C49.2898 153.591 44.4719 158.831 42.4244 162.576C41.1981 164.818 40.7364 167.266 39.9965 169.686C39.2565 172.106 38.2801 174.766 37.3869 176.869C35.4945 181.324 32.9342 186.101 30.3606 190.456C27.787 194.81 24.8046 199.424 21.9585 203.863C16.1244 212.969 10.5362 222.205 6.6342 232.327C5.56313 235.104 4.65669 237.936 4.24605 240.892C3.76728 244.338 4.036 247.616 4.64912 251.033C5.19223 254.06 5.73155 257.067 6.15544 260.114C6.57933 263.161 7.02781 265.988 8.10078 268.753C10.0556 273.784 13.9368 278.573 19.4738 279.746C25.1679 280.953 30.266 278.205 35.7443 277.273C36.331 277.173 35.5116 277.273 36.102 277.232C36.4464 277.207 36.7908 277.181 37.1371 277.177C37.4342 277.173 37.7294 277.177 38.0246 277.194C38.1722 277.203 38.3198 277.215 38.4693 277.228C38.3388 277.217 37.9035 277.135 38.5356 277.241C40.1251 277.508 41.9437 276.824 42.3392 275.086C42.6817 273.586 41.8831 271.583 40.18 271.289C34.6335 270.329 29.6737 272.707 24.3372 273.722C23.3986 273.901 24.9352 273.705 23.9871 273.767C23.6919 273.786 23.3986 273.816 23.1015 273.826C22.513 273.846 21.915 273.837 21.3302 273.761C22.0058 273.848 21.0824 273.693 21.0048 273.675C20.7342 273.612 20.4673 273.539 20.2024 273.454C20.1154 273.425 19.2751 273.091 19.928 273.378C19.595 273.231 19.2714 273.064 18.9553 272.883C18.7188 272.747 18.4879 272.603 18.2608 272.45C18.187 272.399 17.4888 271.848 18.0205 272.29C17.6685 271.997 17.3279 271.691 17.0043 271.366C16.6145 270.975 16.2417 270.559 15.9049 270.123C16.3269 270.669 15.7838 269.927 15.7421 269.864C15.534 269.558 15.3353 269.245 15.1479 268.923C14.866 268.444 14.6275 267.947 14.3758 267.452C13.9709 266.653 14.5689 268.034 14.2623 267.197C14.1506 266.893 14.0333 266.59 13.9292 266.282C13.4429 264.848 13.1023 263.371 12.8336 261.883C12.7087 261.193 12.6008 260.502 12.5005 259.808C12.4494 259.461 12.4021 259.113 12.3548 258.765C12.4305 259.319 12.2772 258.18 12.2829 258.221C12.0615 256.544 11.8439 254.866 11.5524 253.198C11.3064 251.787 11.0188 250.385 10.7804 248.972C10.5419 247.559 10.4322 246.796 10.3924 245.226C10.3186 242.328 10.8315 240.135 11.7625 237.186C12.1845 235.846 12.6614 234.526 13.1609 233.215C13.3899 232.614 13.6246 232.015 13.8649 231.418C13.9803 231.133 14.0977 230.849 14.215 230.566C14.3607 230.217 14.3721 230.188 14.2509 230.481C14.3323 230.292 14.4118 230.105 14.4951 229.918C15.5131 227.577 16.6258 225.278 17.8029 223.015C20.1078 218.585 22.6644 214.293 25.2834 210.042C30.5347 201.524 36.0736 193.133 40.3598 184.07C42.7896 178.932 44.8541 173.597 46.1883 168.066C46.3264 167.495 46.4532 166.924 46.6348 166.365C46.7105 166.135 46.7957 165.908 46.879 165.68C46.9944 165.389 47.002 165.372 46.8979 165.629C46.9679 165.472 47.0417 165.315 47.1174 165.162C47.388 164.608 47.6927 164.068 48.0238 163.549C48.425 162.92 48.531 162.77 48.8905 162.351C49.286 161.886 49.7118 161.446 50.1717 161.044C50.1755 161.042 50.8245 160.543 50.4536 160.807C50.7186 160.619 50.9911 160.443 51.2768 160.286C51.309 160.269 52.0054 159.95 51.5398 160.135C51.8237 160.022 52.1151 159.952 52.4084 159.874C52.6223 159.818 52.8304 159.755 53.0443 159.697C53.1824 159.659 53.3224 159.629 53.4625 159.606C53.243 159.64 53.2695 159.646 53.5401 159.625C54.5657 159.581 55.4532 158.871 55.5781 157.828C55.7087 156.727 55.0767 155.96 54.0926 155.556L54.0851 155.558Z" fill="black"/>
<path d="M53.9222 233.353C52.5351 234.248 51.1404 235.242 49.9842 236.428C48.6671 237.781 47.5828 239.498 46.5382 241.068C44.2769 244.47 42.6475 248.403 41.1564 252.189C38.1627 259.791 36.3725 267.918 36.1189 276.096C36.0546 278.201 35.8729 280.653 36.9648 282.54C37.7917 283.97 39.2886 284.926 40.952 284.998C42.3996 285.06 43.7584 284.492 45.1303 284.112C49.9501 282.78 54.2628 282.314 59.3911 282.584C63.3253 282.792 68.166 283.978 71.2638 280.723C73.3454 278.537 73.0899 275.692 72.4995 272.979C72.3935 272.496 72.2951 272.01 72.208 271.523C72.1551 271.23 72.1115 270.937 72.0623 270.644C72.0453 270.544 71.9791 270.036 72.0491 270.586C71.9109 269.505 71.8239 268.421 71.786 267.333C71.7444 266.146 71.7596 264.958 71.8315 263.774C71.8636 263.229 71.9091 262.687 71.9658 262.147C71.9923 261.901 72.0207 261.656 72.0491 261.41C71.9753 262.022 72.1078 261.019 72.1267 260.9C72.4938 258.597 73.071 256.328 73.8468 254.129C74.0455 253.566 74.2613 253.011 74.4808 252.458C74.5073 252.39 74.706 251.927 74.5224 252.354C74.6605 252.034 74.8044 251.715 74.952 251.4C75.4364 250.361 75.9663 249.342 76.5415 248.351C77.1168 247.359 77.7943 246.305 78.4926 245.33C78.6099 245.167 78.7272 245.005 78.8464 244.844C78.9657 244.684 79.0868 244.523 79.2079 244.364C79.0489 244.572 79.0792 244.538 79.2987 244.259C79.6829 243.794 80.0689 243.331 80.4682 242.878C81.4976 241.71 81.7058 239.804 80.4682 238.671C79.3328 237.63 77.3647 237.431 76.2539 238.671C70.768 244.791 67.1422 252.448 66.0257 260.596C65.4429 264.858 65.4996 269.078 66.232 273.321C66.3077 273.761 66.3947 274.2 66.4856 274.636C66.5385 274.893 66.5953 275.15 66.6464 275.407C66.6729 275.541 66.7429 276.208 66.7032 275.671C66.7183 275.881 66.7221 276.083 66.7278 276.291C66.7448 276.903 66.6824 276.472 66.777 276.278C66.9359 275.951 66.5934 276.603 66.6029 276.584C66.8565 276.272 66.9038 276.2 66.7467 276.367C66.5783 276.527 66.6559 276.48 66.9757 276.225C66.8451 276.306 66.618 276.397 66.5121 276.504C66.2755 276.741 67.1687 276.35 66.5404 276.48C66.3909 276.51 66.2414 276.565 66.0919 276.599C66.0352 276.612 65.2934 276.69 65.8005 276.659C66.3077 276.629 65.5148 276.665 65.4826 276.667C65.3142 276.675 65.1458 276.678 64.9774 276.68C64.4683 276.682 63.9593 276.656 63.4521 276.614C61.3232 276.438 59.2246 276.163 57.0824 276.134C54.7719 276.104 52.4651 276.249 50.1716 276.546C47.6509 276.873 45.1587 277.332 42.7119 278.025C42.2255 278.163 41.6768 278.267 41.2131 278.464L41.0523 278.505C41.4062 278.43 41.7487 278.501 42.0779 278.719C42.305 278.851 42.4772 279.026 42.6343 279.232C43.026 279.746 42.7535 279.442 42.6608 279.095C42.693 279.214 42.6986 279.81 42.6948 279.221C42.693 278.753 42.6721 278.282 42.6721 277.814C42.6721 276.059 42.7668 274.306 42.9352 272.56C42.9787 272.097 43.0298 271.632 43.0828 271.17C43.1055 270.982 43.1282 270.797 43.1509 270.61C43.2626 269.67 43.043 271.304 43.185 270.361C43.3269 269.418 43.4745 268.466 43.6486 267.523C44.3374 263.766 45.2779 260.025 46.3717 256.366C46.9829 254.316 47.6717 252.289 48.44 250.293C48.6444 249.76 48.8564 249.229 49.0721 248.702C49.144 248.528 49.2159 248.352 49.2897 248.179C49.0778 248.683 49.3938 247.941 49.4373 247.842C49.8631 246.868 50.321 245.912 50.7809 244.952C51.6135 243.214 52.4045 241.474 53.3223 239.776C54.1455 238.251 54.681 236.645 55.5212 234.953C56.0057 233.976 54.9725 232.676 53.9222 233.356V233.353Z" fill="black"/>
<path d="M54.6867 237.176C54.9138 237.033 55.1068 236.908 55.5572 236.804C55.8088 236.746 55.93 236.753 56.4182 236.774C56.3747 236.774 57.1808 236.84 56.8213 236.798C56.403 236.749 57.4798 236.912 57.3871 236.897C58.1819 237.036 58.9748 237.15 59.779 237.229C62.0025 237.446 64.4077 237.922 66.7429 238.501C69.078 239.079 71.5533 239.798 73.8809 240.716C74.723 241.049 75.7486 241.508 76.7497 241.997C77.7507 242.487 78.765 242.989 79.7755 243.477C80.9848 244.058 82.2829 244.568 83.5697 243.818C84.374 243.35 84.9114 242.594 84.9474 241.637C85.0306 239.383 83.0077 238.62 81.333 237.79C76.8064 235.55 72.1323 233.521 67.1308 232.618C64.3434 232.113 61.2569 231.55 58.4146 231.79C56.0586 231.989 52.7394 232.417 52.0128 235.13C51.6173 236.609 53.3185 238.051 54.6829 237.18L54.6867 237.176Z" fill="black"/>
<path d="M77.836 244.548C78.7992 245.283 80.3983 245.158 81.5394 245.077C82.6805 244.995 83.8083 244.91 84.9418 244.818C87.1654 244.638 89.387 244.44 91.6067 244.228C96.2487 243.783 100.885 243.274 105.517 242.721C114.171 241.689 122.789 240.291 131.388 238.884C140.254 237.433 149.358 236.028 157.4 231.79C161.342 229.712 164.69 226.85 167.753 223.646C170.531 220.741 173.476 217.267 176.498 215.045C177.444 214.348 178.436 213.713 179.476 213.165C180.468 212.642 181.03 212.404 182.224 212.035C184.472 211.342 186.13 211.136 188.48 211.204C190.636 211.267 192.49 211.614 194.693 212.406C195.633 212.744 196.375 213.09 197.388 213.67C198.4 214.25 199.344 214.877 200.364 215.432C201.384 215.988 202.565 215.755 203.235 214.86C203.947 213.91 203.774 212.833 203.061 211.943C201.706 210.252 199.763 209.156 197.798 208.287C195.789 207.399 193.716 206.753 191.54 206.43C187.29 205.799 182.873 206.134 178.873 207.766C174.623 209.5 171.127 212.436 167.931 215.67C165.102 218.534 162.035 222.056 159.081 224.236C155.338 226.998 151.487 228.688 147.157 229.986C142.827 231.284 138.274 232.123 133.772 232.871C125.402 234.261 117.012 235.536 108.608 236.695C103.449 237.405 98.2224 238.228 93.219 238.873C90.6719 239.201 88.1229 239.511 85.5701 239.796C84.3306 239.934 83.0892 240.069 81.8478 240.193C80.3813 240.342 78.5286 240.354 77.4443 241.501C76.5019 242.498 76.8369 243.786 77.8379 244.551L77.836 244.548Z" fill="black"/>
<path d="M188.7 146.507C189.08 146.815 189.428 147.155 189.799 147.472C190.257 147.865 190.859 148.103 191.366 148.435C192.076 148.898 192.698 149.463 193.268 150.13C193.088 149.92 193.574 150.504 193.662 150.617C193.482 150.383 193.781 150.791 193.826 150.859C194.11 151.275 194.365 151.709 194.602 152.153C195.174 153.23 195.327 153.642 195.73 154.707C195.798 154.889 195.851 155.076 195.919 155.257C195.913 155.244 196.305 156.272 196.112 155.72C195.985 155.357 196.082 155.652 196.105 155.722C196.235 156.137 196.396 156.546 196.527 156.961C196.807 157.855 197.047 158.762 197.27 159.67C197.87 162.12 198.341 164.601 198.777 167.083C199.74 172.558 200.593 177.98 202.417 183.249C204.387 188.943 206.516 194.58 208.477 200.277C210.545 206.287 212.57 212.315 214.442 218.389C216.26 224.29 217.884 230.275 218.826 236.387C218.879 236.736 218.932 237.086 218.981 237.435C218.928 237.055 219.036 237.871 219.049 237.983C219.148 238.795 219.233 239.611 219.303 240.426C219.432 241.933 219.511 243.444 219.528 244.958C219.545 246.471 219.505 247.854 219.403 249.297C219.35 250.047 219.276 250.795 219.193 251.543C219.193 251.536 219.125 252.101 219.163 251.8C219.201 251.5 219.125 252.065 219.125 252.057C219.065 252.458 219 252.858 218.93 253.259C218.667 254.753 218.328 256.234 217.908 257.692C217.742 258.27 217.56 258.845 217.361 259.411C217.271 259.67 217.176 259.927 217.078 260.182C217.028 260.311 216.973 260.437 216.926 260.566C216.758 261.027 217.144 260.095 216.938 260.543C216.436 261.629 215.908 262.693 215.265 263.706C215.117 263.936 214.968 264.165 214.811 264.389C214.739 264.491 214.284 265.109 214.506 264.822C214.727 264.535 214.173 265.219 214.078 265.325C213.872 265.561 213.656 265.789 213.437 266.014C213.058 266.396 212.653 266.741 212.248 267.093C211.966 267.338 212.362 267.002 212.394 266.981C212.246 267.08 212.104 267.189 211.957 267.287C211.698 267.461 211.433 267.626 211.16 267.78C210.925 267.913 210.689 268.039 210.447 268.156C210.326 268.215 210.201 268.27 210.08 268.328C210.121 268.309 210.608 268.141 210.248 268.249C209.618 268.438 209.009 268.659 208.361 268.789C208.229 268.816 207.434 268.921 207.841 268.886C208.248 268.85 207.445 268.908 207.319 268.914C206.67 268.95 206.021 268.94 205.373 268.897C205.093 268.878 204.815 268.842 204.537 268.821C204.141 268.791 204.694 268.846 204.734 268.852C204.594 268.829 204.454 268.808 204.314 268.785C203.655 268.678 203 268.542 202.349 268.389C197.266 267.189 192.416 264.986 187.127 264.777C185.687 264.72 184.236 264.896 182.822 265.16C181.074 265.487 179.919 267.688 180.451 269.33C181.066 271.23 182.743 272.005 184.627 271.697C185.301 271.587 184.181 271.716 184.858 271.668C185.189 271.646 185.519 271.621 185.852 271.614C186.514 271.598 187.178 271.623 187.839 271.674C188.124 271.697 188.406 271.731 188.692 271.757C189.213 271.808 188.121 271.651 188.635 271.753C188.777 271.782 188.921 271.799 189.063 271.823C189.731 271.938 190.395 272.082 191.056 272.239C193.593 272.847 196.065 273.697 198.58 274.392C204.034 275.896 209.994 276.436 214.99 273.255C219.634 270.297 222.475 265.277 224.04 260.126C225.877 254.077 226.31 247.582 225.811 241.302C224.774 228.288 220.312 215.812 216.088 203.557C213.955 197.37 211.739 191.211 209.448 185.081C208.53 182.627 207.614 180.169 206.897 177.645C206.081 174.774 205.593 171.842 205.04 168.914C204.141 164.151 203.106 159.179 201.28 154.67C199.664 150.676 196.89 146.988 192.765 145.428C192.286 145.247 191.775 145.06 191.271 144.959C190.647 144.835 189.947 144.965 189.319 145.033C188.69 145.101 188.054 145.985 188.705 146.512L188.7 146.507Z" fill="black"/>
<path d="M170.318 243.692C170.817 244.213 171.078 244.716 171.462 245.385C171.65 245.711 171.854 246.025 172.023 246.363C172.111 246.541 172.195 246.718 172.272 246.9C172.087 246.471 172.303 247.004 172.356 247.16C172.448 247.431 172.532 247.695 172.638 247.961C172.935 248.709 172.541 247.667 172.789 248.332C172.971 248.817 173.137 249.308 173.283 249.807C173.567 250.771 173.788 251.751 173.97 252.737C174.384 254.978 174.785 257.233 175.113 259.489C175.132 259.617 175.243 260.415 175.19 260.027C175.134 259.616 175.198 260.088 175.205 260.148C175.23 260.337 175.255 260.524 175.277 260.713C175.355 261.329 175.429 261.947 175.501 262.564C175.639 263.757 175.767 264.95 175.894 266.144C176.163 268.668 176.309 271.27 176.903 273.741C176.996 274.13 176.854 273.435 176.854 273.425C176.854 272.719 177.548 271.825 178.021 271.579C178.267 271.453 179.003 271.385 178.468 271.364C177.66 271.334 176.837 271.396 176.027 271.413C174.462 271.445 172.899 271.476 171.334 271.508C164.888 271.636 158.443 271.765 151.999 271.893C151.697 271.899 151.051 271.782 150.785 271.912C150.932 271.84 152.569 273.032 152.63 273.159C152.698 273.3 152.756 273.947 152.762 273.54C152.772 272.726 152.681 271.904 152.679 271.088C152.673 269.384 152.756 267.684 152.804 265.98C152.902 262.459 152.8 258.862 151.708 255.48C151.195 253.89 149.462 252.697 147.764 253.245C146.158 253.765 144.99 255.471 145.526 257.182C145.768 257.959 145.969 258.743 146.11 259.542C146.141 259.712 146.169 259.882 146.194 260.054C146.275 260.622 146.156 259.657 146.209 260.228C146.252 260.689 146.29 261.148 146.315 261.609C146.4 263.241 146.353 264.875 146.286 266.507C146.22 268.139 146.128 269.909 146.139 271.614C146.152 273.537 146.11 275.656 147.511 277.156C149.046 278.802 151.472 278.475 153.502 278.452C155.317 278.431 157.132 278.411 158.946 278.39C162.513 278.348 166.081 278.309 169.646 278.267C171.398 278.246 173.15 278.227 174.903 278.207C176.646 278.186 178.742 278.454 180.419 277.914C182.561 277.224 183.908 275.19 183.647 272.949C183.587 272.435 183.511 271.929 183.401 271.423C183.375 271.298 183.35 271.173 183.32 271.049C183.174 270.429 183.297 271.122 183.324 271.2C183.197 270.828 183.212 270.295 183.161 269.917C183.032 268.954 183.121 269.613 183.148 269.817C183.117 269.585 183.087 269.35 183.057 269.118C182.682 266.207 182.338 263.294 181.927 260.386C181.568 257.834 181.288 255.123 180.485 252.665C179.637 250.068 178.64 247.121 176.85 245.003C176.119 244.14 175.253 243.29 174.293 242.681C173.334 242.073 172.229 241.835 171.148 241.693C170.068 241.551 169.689 243.027 170.321 243.686L170.318 243.692Z" fill="black"/>
<path d="M72.6187 274.999C73.2204 274.908 73.7938 274.865 74.354 274.625C74.8781 274.4 75.3985 274.17 75.9208 273.945C76.9067 273.523 77.9002 273.123 78.8899 272.711C81.0264 271.819 83.1194 270.822 85.2634 269.942C89.5098 268.198 93.8074 266.547 98.1503 265.064C106.77 262.121 115.619 259.854 124.592 258.287C128.981 257.522 133.394 256.933 137.829 256.521C142.146 256.121 146.479 255.86 150.76 255.136C154.868 254.443 158.997 253.226 162.538 250.98C166.26 248.619 168.856 244.997 172.412 242.46C175.968 239.923 180.144 238.869 184.313 238.565C186.624 238.397 188.944 238.417 191.256 238.533C192.392 238.589 193.527 238.669 194.661 238.763C195.264 238.812 195.894 238.924 196.502 238.926C197.206 238.927 197.885 238.718 198.563 238.55C200.171 238.147 200.657 235.595 199.049 234.834C198.538 234.592 197.999 234.282 197.457 234.114C196.867 233.929 196.201 233.927 195.584 233.872C194.452 233.77 193.321 233.679 192.187 233.61C190.126 233.483 188.06 233.422 185.995 233.492C181.645 233.642 177.353 234.371 173.366 236.156C169.337 237.958 166.411 241.115 163.242 244.07C160.072 247.024 156.779 248.606 152.762 249.599C148.705 250.602 144.759 250.878 140.562 251.247C135.905 251.655 131.265 252.204 126.649 252.943C117.485 254.411 108.439 256.612 99.6245 259.513C94.6287 261.157 89.7029 263.007 84.9095 265.171C82.5384 266.243 80.19 267.369 77.87 268.547C75.5499 269.726 73.0728 270.986 71.3754 272.862C70.4614 273.871 71.3849 275.188 72.6225 275.003L72.6187 274.999Z" fill="black"/>
<path d="M186.225 227.438C187.865 227.789 189.614 227.502 191.294 227.632C192.975 227.763 194.606 227.933 196.224 228.292C197.842 228.65 199.475 229.263 201.081 229.858C202.688 230.453 204.745 231.001 206.41 230.103C208.076 229.206 207.179 226.863 205.496 226.735C204.637 226.669 203.914 226.761 203.065 226.516C202.3 226.295 201.566 225.991 200.82 225.719C199.27 225.154 197.673 224.732 196.042 224.47C194.335 224.194 192.676 224.054 190.952 224.196C189.302 224.332 187.371 224.426 185.946 225.314C185.146 225.815 185.205 227.217 186.225 227.434V227.438Z" fill="black"/>
<path d="M185.511 217.486C188.136 218.466 191.113 218.6 193.864 219.118C196.678 219.647 199.448 220.37 202.17 221.26C204.476 222.014 205.494 218.34 203.173 217.629C200.321 216.756 197.416 216.065 194.47 215.585C191.58 215.115 188.38 214.603 185.511 215.379C184.402 215.68 184.548 217.125 185.511 217.486Z" fill="black"/>
<path d="M67.0212 232.831C66.7393 230.895 66.0599 229.025 64.8639 227.468C63.5658 225.779 62.0386 224.302 60.3809 222.966C58.5624 221.502 56.6473 220.225 54.6282 219.054C53.6328 218.476 52.6242 217.918 51.6099 217.374C50.5255 216.79 49.3561 215.972 48.1336 215.749C46.7446 215.494 45.6092 217.096 46.703 218.203C47.5205 219.033 48.6654 219.498 49.674 220.057C50.6826 220.616 51.5909 221.134 52.5371 221.695C54.4162 222.809 56.2802 223.982 58.0628 225.244C59.6297 226.353 61.1114 227.604 62.3868 229.043C63.5904 230.4 64.7844 231.794 65.5736 233.439C65.9956 234.32 67.1385 233.638 67.0212 232.829V232.831Z" fill="black"/>
<path d="M45.3878 227.224C45.524 227.139 45.5127 227.137 45.3499 227.137C45.4881 227.137 45.7435 227.292 45.8779 227.341C46.1239 227.428 46.3169 227.491 46.5383 227.644C47.1855 228.095 47.6491 228.834 48.1828 229.404C49.6702 231.001 51.1576 232.597 52.645 234.195C54.1323 235.793 56.7779 233.303 55.1523 231.692C54.0907 230.64 53.0272 229.588 51.9656 228.535C50.9683 227.547 50.0051 226.359 48.7808 225.649C47.4883 224.899 44.3318 224.328 44.5968 226.769C44.6384 227.145 45.0206 227.453 45.3916 227.224H45.3878Z" fill="black"/>
<path d="M86.6336 268.075C88.1872 268.997 90.0928 268.719 91.8262 268.757C93.8492 268.802 95.8797 268.666 97.9045 268.649C101.903 268.617 105.915 268.58 109.913 268.676C117.761 268.865 125.508 269.804 133.267 270.933C135.526 271.262 137.786 271.617 140.051 271.91C141.141 272.052 142.231 272.188 143.321 272.326C143.709 272.375 144.101 272.409 144.485 272.483C144.653 272.515 144.814 272.569 144.981 272.603C144.897 272.586 144.755 272.462 144.72 272.397C146.154 274.936 150.005 272.679 148.627 270.117C147.639 268.279 145.603 268.06 143.753 267.786C141.612 267.469 139.474 267.166 137.328 266.889C133.225 266.358 129.125 265.795 125.009 265.357C116.69 264.471 108.089 263.991 99.7514 264.865C97.3992 265.111 95.0451 265.391 92.7081 265.761C91.5689 265.942 90.4448 266.248 89.3245 266.522C88.2781 266.779 87.3716 267.102 86.6109 267.896C86.5598 267.949 86.5693 268.035 86.6336 268.073V268.075Z" fill="black"/>
<path d="M100.677 172.067C99.8043 175.575 100.745 179.128 102.83 182.032C105.218 185.357 108.939 187.316 112.729 188.661C119.116 190.928 127.049 191.682 132.989 187.792C134.538 186.778 135.941 185.534 137.144 184.129C138.651 182.372 139.705 180.575 140.579 178.441C141.398 176.438 138.278 174.689 136.923 176.315C135.914 177.526 134.779 178.951 133.94 179.96C133.509 180.479 133.055 180.982 132.574 181.458C132.328 181.703 132.077 181.939 131.817 182.17C131.721 182.255 131.624 182.34 131.528 182.421C131.516 182.431 130.89 182.924 131.267 182.642C130.773 183.012 130.252 183.351 129.715 183.653C129.465 183.793 129.213 183.927 128.954 184.051C128.807 184.123 128.659 184.191 128.509 184.257C128.992 184.048 128.256 184.344 128.224 184.356C127.673 184.552 127.107 184.713 126.536 184.839C126.208 184.911 125.879 184.97 125.55 185.023C126.099 184.936 125.014 185.07 124.869 185.081C123.338 185.202 121.792 185.266 120.257 185.198C119.941 185.185 119.623 185.166 119.307 185.138C119.137 185.123 118.968 185.108 118.8 185.087C119.258 185.142 118.862 185.094 118.773 185.077C117.922 184.909 117.068 184.76 116.22 184.563C113.058 183.829 110.017 182.699 107.438 180.685C104.734 178.575 102.34 175.802 102.013 172.242C101.946 171.525 100.875 171.271 100.679 172.063L100.677 172.067Z" fill="black"/>
<path d="M142.538 154.639C142.176 155.01 141.781 155.225 141.37 155.531C140.685 156.041 140.466 156.631 140.208 157.407C139.782 158.688 139.351 159.967 138.935 161.249C138.13 163.726 137.614 166.318 137.027 168.853C135.831 174.039 135.078 179.334 134.321 184.601C132.792 195.262 131.647 205.973 130.93 216.719C130.538 222.594 130.375 228.471 130.343 234.359C130.336 235.895 131.702 237.367 133.286 237.297C134.87 237.227 136.168 236.007 136.229 234.359C136.613 223.96 137.275 213.545 138.289 203.187C138.552 200.51 138.84 197.837 139.154 195.165C139.304 193.886 139.461 192.609 139.623 191.332C139.786 190.055 139.938 188.901 140.064 187.983C140.793 182.689 141.807 177.438 142.53 172.148C142.92 169.307 143.378 166.477 143.798 163.641C144.027 162.09 144.135 160.518 144.305 158.96C144.379 158.278 144.604 157.437 144.421 156.77C144.237 156.103 143.707 155.563 143.486 154.891C143.357 154.498 142.848 154.324 142.54 154.641L142.538 154.639Z" fill="black"/>
<path d="M107.813 50.298C107.359 49.6141 106.539 49.3137 105.934 48.7791C105.224 48.1519 104.59 47.3301 104.089 46.5291C102.991 44.7798 102.109 42.8358 101.748 40.7729C101.485 39.2748 101.77 37.7767 102.539 36.4808C102.652 36.29 102.772 36.101 102.902 35.9197C102.654 36.2654 103.148 35.6458 103.159 35.6325C103.313 35.4701 103.475 35.3208 103.638 35.1678C103.778 35.0488 103.771 35.0488 103.614 35.1678L103.833 35.0129C104.215 34.7616 104.588 34.4896 104.987 34.2648C104.81 34.3007 104.885 34.261 105.215 34.1495C105.527 34.0475 105.796 33.8756 106.023 33.6319C106.066 33.5941 106.524 33.1823 106.265 33.375C107.063 32.778 107.33 31.9374 106.886 31.0098C105.928 29.0092 103.61 29.1962 101.897 29.9594C100.399 30.6263 99.2044 31.8958 98.2885 33.2276C96.5589 35.7402 96.1331 38.9064 96.6403 41.8592C97.1474 44.8119 98.9073 47.7552 101.14 49.9315C102.261 51.0234 103.583 51.7885 105.146 52.0247C105.805 52.1248 106.666 52.0568 107.247 51.6752C107.625 51.4258 108.123 50.7722 107.809 50.2961L107.813 50.298Z" fill="black"/>
<path d="M113.887 46.7086C113.626 47.7646 113.564 48.6733 113.677 49.7577C113.802 50.9686 114.116 52.1399 114.491 53.2979C115.187 55.4497 116.149 57.4427 117.396 59.3281C120.02 63.2934 123.455 66.5654 127.499 69.0742C131.67 71.6604 136.247 73.1623 141.109 73.7026C141.809 73.7801 142.511 73.8424 143.211 73.9161C143.561 73.952 143.911 73.9879 144.26 74.0332C143.629 73.9501 144.763 74.1182 144.761 74.1182C145.401 74.2316 146.035 74.3714 146.659 74.5546C146.918 74.6302 147.176 74.7133 147.431 74.804C147.6 74.8625 147.768 74.9249 147.935 74.991C147.549 74.821 147.528 74.8134 147.874 74.9646C148.75 75.3821 149.596 75.8392 150.397 76.3909C150.614 76.5401 150.826 76.695 151.036 76.8518C150.381 76.3588 151.08 76.9028 151.18 76.9878C151.649 77.3883 152.1 77.8115 152.529 78.2536C152.959 78.6956 153.371 79.1679 153.767 79.6478C153.937 79.8537 154.104 80.0634 154.272 80.2712C154.503 80.5621 154.494 80.5508 154.246 80.2372C154.353 80.3808 154.459 80.5281 154.565 80.6736C155.252 81.6314 155.871 82.6383 156.429 83.6754C157.029 84.79 157.659 85.8876 158.201 87.0343C158.537 87.7484 158.901 88.3265 159.395 88.9499C159.889 89.5733 159.132 88.5759 159.629 89.2579C159.834 89.5374 160.021 89.8208 160.207 90.1136C161.23 91.7345 163.577 91.0072 163.7 89.1691C163.781 87.9657 163.993 86.7717 163.738 85.5778C163.482 84.3839 163.136 83.2957 162.737 82.2C161.936 80.0067 160.748 77.8909 159.363 76.0149C156.479 72.1082 152.355 69.0062 147.567 67.8992C146.025 67.5421 144.436 67.3796 142.861 67.2247C142.161 67.1548 141.461 67.083 140.759 67.0131C139.637 66.8998 141.323 67.1227 140.403 66.9678C140.042 66.9073 139.682 66.8488 139.322 66.7808C137.175 66.3652 135.078 65.7814 133.049 64.9615C133.731 65.2373 132.894 64.8897 132.807 64.8501C132.559 64.7386 132.311 64.6234 132.067 64.5044C131.658 64.3079 131.255 64.1001 130.856 63.8847C129.821 63.3274 128.818 62.7116 127.853 62.0428C127.631 61.8898 127.41 61.733 127.192 61.5724C127.151 61.5422 126.445 61 126.929 61.3816C126.504 61.0472 126.085 60.7015 125.677 60.3444C124.865 59.636 124.068 58.903 123.315 58.1342C121.565 56.3489 120.524 54.8867 119.125 52.7671C118.446 51.7375 117.861 50.6626 117.305 49.5631C116.749 48.4636 116.158 47.485 115.435 46.5064C115.032 45.9605 114.08 45.9435 113.891 46.7086H113.887Z" fill="black"/>
<path d="M176.689 112.974C175.714 113.395 175.429 114.387 175.3 115.362C175.135 116.598 175.107 117.809 175.36 119.035C175.864 121.479 177.016 123.733 178.583 125.664C180.099 127.532 182.542 129.006 184.923 129.4C187.449 129.82 191.014 129.468 191.674 126.476C191.875 125.571 191.268 124.749 190.329 124.713C188.83 124.655 187.065 125.371 185.547 125.006C183.815 124.591 182.451 123.416 181.242 122.163C180.01 120.89 179.155 119.356 178.585 117.688C178.282 116.805 177.955 115.948 177.768 115.03C177.605 114.232 177.378 113.514 176.736 112.98C176.721 112.969 176.708 112.967 176.691 112.974H176.689Z" fill="black"/>
<path d="M165.821 29.1452C166.625 27.7529 167.49 26.387 168.126 24.9078C168.766 23.421 169.407 21.9343 170.047 20.4475C170.686 18.9608 171.328 17.474 171.967 15.9872C172.607 14.5005 173.396 12.9382 173.894 11.3569C174.575 9.19576 171.235 7.73545 170.189 9.7984C169.435 11.2833 168.911 12.8985 168.313 14.4514C167.715 16.0042 167.148 17.474 166.563 18.9853C165.978 20.4966 165.397 22.008 164.812 23.5193C164.231 25.0249 163.893 26.608 163.492 28.1704C163.138 29.5513 165.085 30.4184 165.817 29.1489L165.821 29.1452Z" fill="#FCCAB4"/>
<path d="M163.493 6.96469C164.434 8.00183 165.329 9.16177 166.394 10.0742C167.46 10.9867 168.588 11.8897 169.683 12.7965C171.99 14.7083 174.31 16.5408 176.757 18.2712C178.008 19.1572 180.063 18.5338 180.756 17.2247C181.533 15.7549 181.066 14.1416 179.707 13.2329C177.304 11.6271 174.848 10.1857 172.329 8.76694C171.135 8.0944 169.956 7.36708 168.735 6.74366C167.422 6.07112 165.969 5.61395 164.595 5.07743C163.465 4.63726 162.805 6.20525 163.493 6.96469Z" fill="#FCCAB4"/>
<path d="M176.693 35.5248C177.716 33.9719 178.727 32.472 179.546 30.8019C180.366 29.1319 181.234 27.3788 182.088 25.6729C182.941 23.967 183.63 22.3008 184.376 20.6006C184.748 19.7485 185.123 18.8984 185.502 18.0502C185.922 17.1037 186.567 16.059 186.722 15.037C187.138 12.2789 183.935 10.8412 182.241 13.1516C181.624 13.9923 181.344 15.1711 180.981 16.1478C180.676 16.9602 180.375 17.7744 180.074 18.5886C179.408 20.3909 178.721 22.1855 178.18 24.0294C177.639 25.8732 177.143 27.5923 176.636 29.3775C176.102 31.2572 175.839 33.1218 175.576 35.0563C175.485 35.7175 176.29 36.1445 176.696 35.5286L176.693 35.5248Z" fill="#FCCAB4"/>
<path d="M178.986 27.5866C181.441 27.0784 183.895 26.5759 186.342 26.0318C187.502 25.7749 188.673 25.5463 189.814 25.2157C191.092 24.8474 192.638 24.6112 193.762 23.8896C194.626 23.3341 195.103 22.3008 194.823 21.2844C194.572 20.3682 193.593 19.503 192.596 19.5917C191.252 19.7089 190.041 20.3247 188.794 20.8178C187.547 21.3109 186.287 21.9078 185.047 22.4916C182.761 23.5646 180.494 24.6735 178.223 25.7806C177.168 26.2963 177.942 27.8039 178.986 27.5866Z" fill="#FCCAB4"/>
<path d="M180.788 23.6421C180.651 25.0249 180.528 26.3662 180.725 27.7453C180.922 29.1244 181.174 30.4902 181.56 31.8353C182.32 34.4782 183.2 37.363 184.599 39.7471C185.131 40.6539 186.359 40.9769 187.269 40.4461C188.266 39.8642 188.393 38.7477 187.969 37.7805C186.911 35.3642 185.615 33.0992 184.707 30.6093C184.27 29.4096 183.795 28.2214 183.378 27.0142C182.962 25.807 182.288 24.5961 181.736 23.3852C181.505 22.877 180.831 23.1981 180.788 23.6421Z" fill="#FCCAB4"/>
<path d="M209.703 27.6999C208.028 24.8379 205.64 22.3952 202.237 21.7756C198.809 21.1503 195.12 22.6181 193.572 25.8788C192.713 27.6886 192.647 29.6382 193.495 31.4669C194.265 33.1294 195.692 34.2477 197.136 35.3038C197.438 35.5248 197.751 35.7345 198.048 35.965C197.597 35.6155 198.447 36.3447 198.528 36.424C198.774 36.664 199.013 36.9171 199.246 37.1702C199.299 37.2288 199.687 37.6992 199.467 37.4121C199.248 37.1249 199.675 37.7389 199.711 37.7993C199.806 37.9599 199.889 38.1224 199.974 38.2886C199.717 37.788 199.9 38.1564 199.948 38.2924C200.131 38.8081 199.989 38.3944 199.98 38.2282C199.989 38.4001 199.987 38.5644 199.984 38.7382C199.993 38.283 200.139 38.5758 199.948 38.6721C200.016 38.6381 200.143 38.0903 199.933 38.6343C199.948 38.5947 200.338 38.0581 199.989 38.5493C199.673 38.997 200.247 38.3528 199.987 38.5663C199.897 38.64 199.777 38.6702 199.685 38.7401C200.12 38.4114 199.857 38.6797 199.533 38.7647C199.376 38.8062 199.219 38.8365 199.06 38.8648C199.478 38.7892 199.371 38.844 199.017 38.827C198.894 38.8214 198.767 38.8214 198.646 38.8195C197.921 38.81 199.166 38.9971 198.475 38.7874C198.32 38.7401 198.158 38.6967 198.002 38.6532C197.512 38.5191 198.154 38.8006 197.86 38.5833C197.701 38.4662 197.503 38.3869 197.334 38.2811C197.268 38.2395 196.742 37.8654 197.088 38.1356C196.731 37.8579 196.403 37.533 196.089 37.208C195.395 36.4883 194.91 35.8573 194.517 35.3397C193.582 34.1079 191.913 33.3372 190.454 34.2761C189.212 35.0752 188.41 36.9908 189.388 38.3321C191.682 41.4794 194.271 44.4907 198.4 44.8931C202.309 45.2747 206.015 42.6658 206.221 38.6098C206.327 36.5317 205.269 34.6067 203.994 33.0519C202.894 31.7106 201.405 30.8416 199.955 29.9367C199.641 29.7402 199.318 29.5438 199.026 29.3152C199.403 29.608 198.731 29.0091 198.61 28.8712C198.939 29.2453 198.405 28.2043 198.555 28.8051C198.517 28.6502 198.468 28.5066 198.438 28.346C198.51 28.7333 198.549 28.5803 198.496 28.2856L198.504 28.1703C198.46 28.4858 198.462 28.5406 198.508 28.3347C198.519 28.3328 198.701 27.751 198.563 28.1004C198.424 28.4499 198.992 27.3939 198.82 27.6414C198.648 27.8889 198.962 27.477 199.009 27.4279C199.096 27.3353 199.185 27.2447 199.278 27.1559C199.401 27.0369 199.53 26.9254 199.653 26.8083C200.103 26.3775 199.403 26.8952 199.952 26.5797C200.101 26.4928 200.243 26.4002 200.398 26.319L200.627 26.2056C200.493 26.2642 200.502 26.2642 200.655 26.2094C201.041 26.0809 201.21 26.0451 201.52 26.0224C202.321 25.9657 203.081 26.0866 203.846 26.3228C205.549 26.8498 207.205 27.7358 208.675 28.7333C209.317 29.1697 210.072 28.3253 209.707 27.7037L209.703 27.6999Z" fill="#FCCAB4"/>
<path d="M215.017 44.2357C215.44 44.0468 215.887 43.8881 216.298 43.6765C216.867 43.3837 217.303 42.936 217.761 42.5015C218.54 41.7609 219.254 41.026 219.929 40.1891C221.265 38.5361 222.599 36.885 223.935 35.232C225.097 33.7944 225.211 31.824 223.621 30.5961C222.032 29.3681 220.111 29.9405 219.049 31.467C217.836 33.2125 216.621 34.9581 215.408 36.7037C214.829 37.5368 214.341 38.3718 213.876 39.2748C213.586 39.8359 213.238 40.3969 213.086 41.0109C212.96 41.521 212.941 42.0651 212.869 42.5865C212.689 43.8919 213.785 44.7835 215.017 44.2338V44.2357Z" fill="#FCCAB4"/>
<path d="M209.23 52.5272C209.765 52.5479 210.265 52.4365 210.729 52.1928C211.211 52.036 211.628 51.7677 211.979 51.3899C212.358 51.0385 212.627 50.621 212.784 50.1412C213.028 49.6783 213.139 49.1796 213.119 48.645L212.981 47.6135C212.795 46.9561 212.462 46.3855 211.979 45.9L211.192 45.2936C210.585 44.9422 209.932 44.7665 209.23 44.7628C208.694 44.742 208.195 44.8534 207.731 45.0971C207.249 45.2539 206.832 45.5222 206.48 45.9C206.102 46.2514 205.833 46.6689 205.676 47.1488C205.432 47.6116 205.32 48.1103 205.341 48.645L205.479 49.6764C205.665 50.3339 205.998 50.9044 206.48 51.3899L207.268 51.9963C207.875 52.3477 208.528 52.5234 209.23 52.5272Z" fill="#FCCAB4"/>
<path d="M124.303 94.453C124.872 93.8088 125.272 93.2081 125.618 92.4052C125.417 92.8737 125.697 92.256 125.749 92.1596C125.851 91.9688 125.97 91.7912 126.082 91.608C125.775 92.1181 126.044 91.6552 126.165 91.5286C126.295 91.3926 126.437 91.2679 126.581 91.147C126.087 91.5608 126.545 91.2018 126.683 91.1206C126.886 90.9997 127.094 90.8958 127.306 90.7919C127.401 90.7465 127.497 90.7012 127.594 90.6596C127.397 90.7446 127.387 90.7579 127.569 90.6993C127.696 90.6596 127.826 90.6294 127.959 90.6086C127.783 90.6445 127.785 90.6559 127.964 90.6445C128.101 90.6426 128.237 90.6483 128.373 90.6634C128.214 90.6464 128.222 90.654 128.396 90.6842C128.668 90.7428 128.933 90.8202 129.196 90.9109C129.363 90.9695 129.895 91.2585 130.275 91.4701C131.134 91.948 131.734 92.0708 132.711 91.863C133.604 91.6741 134.251 90.7239 134.251 89.8435C134.249 87.7201 132.116 86.7397 130.375 86.12C128.835 85.5703 127.079 85.4947 125.533 86.052C122.757 87.0533 119.979 89.5677 120.215 92.7604C120.285 93.7201 120.756 94.5721 121.688 94.9442C122.532 95.2824 123.663 95.1747 124.303 94.4493V94.453Z" fill="black"/>
<path d="M100.166 101.783C100.902 99.9977 99.3995 97.9744 97.9007 97.0752C96.6537 96.3252 95.2306 96.0569 93.8019 95.936C89.968 95.613 85.9278 98.0689 85.3601 102.034C85.2314 102.935 85.4471 103.819 86.2874 104.311C87.0348 104.747 88.1343 104.653 88.7342 103.995C89.1902 103.494 89.6841 103.026 90.161 102.546C90.3578 102.348 90.4354 102.272 90.6947 102.114C90.7931 102.053 91.5103 101.73 91.2207 101.834C91.4951 101.736 91.7828 101.656 92.0647 101.577C92.182 101.545 93.1396 101.345 92.8027 101.382C93.325 101.324 93.8379 101.424 94.3545 101.407C94.5626 101.428 94.4794 101.416 94.1047 101.369C94.2315 101.39 94.3583 101.413 94.485 101.441C94.6819 101.484 94.8673 101.549 95.0622 101.602C95.3385 101.704 95.3215 101.694 95.0092 101.571C95.1436 101.636 95.276 101.707 95.4047 101.783C95.6148 101.887 96.6442 102.365 96.0708 102.078C96.8278 102.457 97.4485 102.926 98.3473 102.89C99.197 102.856 99.8158 102.622 100.162 101.783H100.166Z" fill="black"/>
</g>
<defs>
<clipPath id="clip0_182_387">
<rect width="222" height="280" fill="white" transform="translate(4 5)"/>
</clipPath>
</defs>
</svg>
