<svg width="230" height="288" viewBox="0 0 230 288" fill="none" xmlns="http://www.w3.org/2000/svg">
<g clip-path="url(#clip0_182_350)">
<path d="M90.9821 102.598C90.7175 102.659 90.3882 102.667 90.1372 102.761C90.2647 102.713 91.1292 102.659 90.5332 102.711C90.3666 102.726 90.2019 102.744 90.0373 102.757C89.3335 102.816 88.6278 102.846 87.9221 102.861C87.1536 102.877 86.3852 102.881 85.6187 102.857C83.4369 102.792 81.3531 104.711 81.4511 106.788C81.555 108.973 83.282 110.648 85.6187 110.719C88.1201 110.793 90.7606 110.741 93.1993 110.179C95.3184 109.691 96.7886 107.322 96.1103 105.344C95.4321 103.365 93.2541 102.075 90.9841 102.598H90.9821Z" fill="#FCCAB4"/>
<path d="M137.777 107.115C140.927 107.283 144.201 106.847 147.243 106.098C149.352 105.579 150.84 103.264 150.154 101.263C149.468 99.2627 147.288 97.9611 145.028 98.5176C144.348 98.6859 143.662 98.8338 142.97 98.9558C142.638 99.015 142.272 99.113 141.931 99.1204C142.968 99.0982 141.733 99.1389 141.507 99.1592C140.268 99.2757 139.022 99.3219 137.777 99.2553C135.597 99.1389 133.513 101.147 133.609 103.186C133.715 105.416 135.44 106.991 137.777 107.117V107.115Z" fill="#FCCAB4"/>
<path d="M70.8303 83.632C71.04 86.2981 71.2517 89.0123 71.7653 91.6433C72.2711 94.2318 72.9768 96.8037 73.7257 99.3367C75.2606 104.521 77.2405 109.583 79.8614 114.37C84.8191 123.426 92.2389 132.347 102.287 136.664C107.176 138.765 112.491 139.857 117.874 139.471C123.077 139.098 128.085 137.611 132.665 135.261C142.249 130.345 149.147 122.089 152.993 112.562C157.078 102.437 157.645 91.2236 156.571 80.5313C156.424 79.0633 156.228 77.6064 155.957 76.1531C155.702 74.7849 154.034 73.9769 152.699 74.147C151.337 74.319 150.009 75.5041 150.125 76.8982C150.55 82.1103 151.09 87.2559 150.886 92.4938C150.682 97.7318 150.064 102.006 148.535 107.015C147.12 111.65 145.232 115.709 142.207 119.752C142.037 119.98 141.866 120.204 141.69 120.427C141.678 120.444 141.09 121.169 141.453 120.73C141.151 121.097 140.839 121.455 140.521 121.81C139.696 122.733 138.824 123.62 137.91 124.467C137.067 125.249 136.189 125.996 135.28 126.708C135.129 126.826 134.976 126.943 134.823 127.059C134.805 127.072 134.039 127.629 134.509 127.294C133.962 127.684 133.404 128.063 132.837 128.426C130.904 129.664 128.856 130.733 126.717 131.621C127.289 131.384 126.415 131.735 126.376 131.75C126.107 131.85 125.839 131.948 125.566 132.042C125.025 132.231 124.48 132.405 123.931 132.567C122.837 132.889 121.724 133.157 120.599 133.366C120.038 133.469 119.476 133.564 118.909 133.634C119.591 133.547 118.654 133.653 118.586 133.66C118.301 133.688 118.017 133.71 117.733 133.728C116.592 133.806 115.447 133.819 114.304 133.765C113.73 133.738 113.157 133.686 112.585 133.634C111.646 133.549 113.181 133.743 112.25 133.592C111.964 133.545 111.677 133.503 111.391 133.451C110.18 133.235 108.986 132.941 107.814 132.58C105.618 131.902 103.76 131.059 101.533 129.761C99.247 128.427 97.5984 127.294 95.7224 125.715C91.8507 122.459 88.6848 118.743 85.9443 114.64C82.8039 109.94 80.2515 104.85 78.203 99.6436C77.1523 96.9719 76.2231 94.2577 75.3958 91.5176C74.5686 88.7775 73.5433 86.1114 72.673 83.3935C72.3789 82.4764 70.7499 82.5966 70.8303 83.6283V83.632Z" fill="black"/>
<path d="M95.3614 83.9592C94.3538 84.941 94.0892 86.0411 93.8187 87.3298C93.3776 89.4357 92.615 92.1444 94.0774 94.034C95.038 95.2746 96.3142 96.0252 98.0098 95.8108C99.4958 95.6222 100.937 94.5794 101.291 93.1446C101.801 91.0757 100.899 89.2157 100.443 87.2244C100.294 86.5754 100.225 85.8821 99.9505 85.2683C99.7271 84.769 99.3625 84.3789 99.0076 83.9592C98.149 82.9386 96.2455 83.0995 95.3614 83.9592Z" fill="black"/>
<path d="M128.356 81.7017C128.071 82.2897 127.752 82.8869 127.54 83.4989C127.299 84.1904 127.307 85.0667 127.234 85.8026C127.115 87.0192 127.242 88.2044 127.534 89.3951C127.997 91.2846 130.404 92.5807 132.365 91.9817C134.458 91.342 135.603 89.4505 135.107 87.426C134.893 86.5514 134.735 85.7397 134.419 84.8855C133.992 83.73 133.521 82.7334 132.837 81.7017C131.894 80.2781 129.206 79.9452 128.358 81.7017H128.356Z" fill="black"/>
<path d="M99.1255 48.1735C96.6163 47.9627 93.9581 48.2142 91.5626 48.9759C89.1671 49.7377 86.9578 51.0615 84.9798 52.5388C80.873 55.608 78.0717 60.1526 75.6566 64.4662C73.6688 68.0142 72.2554 71.8174 70.9518 75.6281C69.5306 79.7844 68.2779 83.9907 67.0429 88.1988C66.3901 90.4268 65.7432 92.6566 65.0787 94.8808C64.4534 96.9738 63.8731 99.2147 64.1044 101.385C64.1887 102.173 64.5553 102.859 65.3767 103.17C66.102 103.445 67.09 103.36 67.6389 102.766C68.2622 102.092 68.8268 101.446 69.2228 100.627C69.7031 99.6325 70.0991 98.6045 70.4892 97.5765C71.1812 95.7535 71.6379 93.8269 72.1829 91.9614C73.3865 87.8494 74.5843 83.7337 75.9114 79.655C77.1268 75.9183 78.4814 72.2316 80.03 68.6059C80.1045 68.4302 80.1849 68.2546 80.2594 68.0789C80.4339 67.6574 79.9751 68.678 80.2868 68.0198C80.4731 67.626 80.6573 67.234 80.8534 66.8439C81.3748 65.8011 81.9119 64.7638 82.4765 63.7432C83.6115 61.6909 84.8563 59.6423 86.4226 57.8526C89.7689 54.029 94.0796 50.8212 99.3725 49.9096C100.482 49.7192 100.104 48.2549 99.1235 48.1717L99.1255 48.1735Z" fill="black"/>
<path d="M81.3335 16.7863C81.21 16.7808 80.3338 16.6754 80.6317 16.8325C80.2671 16.6403 79.73 16.5903 79.3693 16.8325C78.0029 17.7496 76.5464 18.5298 75.4232 19.7261C74.2999 20.9223 73.3354 22.1445 72.3612 23.3999C70.4714 25.8368 68.6679 28.4437 66.2861 30.4886C64.1219 32.3449 61.5069 33.0457 58.6879 33.5911C55.6181 34.1846 52.5678 34.6247 49.6705 35.8117C43.7033 38.2596 40.0493 43.6862 38.9476 49.5879C38.3987 52.5222 38.283 55.4971 38.434 58.4701C38.5084 59.9418 38.6398 61.4099 38.8025 62.8761C38.877 63.5565 38.9593 64.235 39.0456 64.9136C39.0907 65.2704 39.1377 65.6291 39.1848 65.986C39.2024 66.1191 39.2181 66.2522 39.2357 66.3853C39.5513 68.7353 39.0965 65.2797 39.4141 67.6296C39.3612 67.2432 39.4788 68.1714 39.4886 68.2823C39.5317 68.7039 39.5592 69.1273 39.5494 69.5525C39.5396 70.0129 39.5592 69.8724 39.4749 70.2292C39.4024 70.5398 39.3671 70.6027 39.1063 71.0224C38.8711 71.4033 39.3435 70.7802 39.0475 71.1204C38.926 71.2609 38.7927 71.3922 38.6594 71.5216C38.4202 71.7509 38.1693 71.9672 37.9086 72.1743C37.4303 72.5551 36.9872 72.8288 36.2521 73.3483C33.6821 75.164 31.5082 77.3494 29.8399 79.949C26.7191 84.8116 25.3018 91.1922 27.5562 96.6262C28.8284 99.6935 31.1083 101.866 33.3313 104.329C33.4175 104.425 33.9801 105.102 33.6822 104.721C33.9115 105.015 34.1311 105.314 34.333 105.627C34.5349 105.939 34.7211 106.257 34.8779 106.588C34.8525 106.533 34.7309 106.226 34.8427 106.538C34.9289 106.779 35.0112 107.019 35.074 107.265C35.123 107.457 35.1759 107.664 35.2034 107.862C35.1426 107.426 35.1936 107.929 35.1916 107.991C35.1838 108.391 35.1955 108.785 35.1602 109.186C35.2014 108.724 35.0701 109.628 35.0387 109.755C34.9309 110.206 34.7937 110.65 34.6368 111.088C34.3428 111.907 34.2604 112.066 33.8331 112.887C33.4057 113.708 32.9294 114.527 32.4472 115.333C31.6552 116.659 30.7985 117.957 30.1575 119.357C28.9519 121.988 28.1051 124.885 28.4344 127.777C28.7872 130.874 30.3986 133.804 33.5038 135.182C35.3798 136.014 37.3401 136.211 39.3788 136.411C39.5905 136.431 39.8003 136.454 40.012 136.474C40.1081 136.483 40.6374 136.565 40.1022 136.483C40.4629 136.539 40.8236 136.6 41.1784 136.681C41.3803 136.727 41.5803 136.779 41.7783 136.838C41.8743 136.868 42.4565 137.114 42.088 136.936C41.7508 136.775 42.1899 137.008 42.2683 137.051C42.4408 137.145 42.8133 137.471 42.2958 137.025C42.4997 137.199 42.6957 137.374 42.8878 137.559C42.9741 137.643 43.2289 138.023 43.0113 137.685C42.7937 137.347 43.0446 137.753 43.0956 137.84C43.2309 138.07 43.3583 138.295 43.4837 138.528C43.127 137.863 43.5406 138.852 43.6112 139.085C43.7641 139.584 43.6229 138.543 43.6406 139.283C43.6425 139.395 43.6935 140.316 43.6641 139.874C43.6406 139.527 43.6876 139.78 43.6543 139.911C43.617 140.052 43.5896 140.192 43.5465 140.333C43.5033 140.473 43.4524 140.606 43.4014 140.743C43.5308 140.401 43.57 140.401 43.3681 140.719C42.976 141.335 43.6543 140.451 43.1544 140.989C43.0838 141.067 42.9878 141.122 42.9172 141.2C43.2799 140.793 43.2583 140.991 43.0329 141.102C42.9113 141.161 42.7839 141.235 42.6643 141.3C42.2036 141.551 42.7271 141.259 42.8211 141.239C42.6839 141.27 42.5506 141.322 42.4134 141.355C42.2919 141.385 41.6998 141.433 42.1938 141.412C42.6878 141.392 41.8704 141.411 41.7469 141.409C41.7606 141.409 41.3313 141.411 41.3137 141.387C41.3391 141.427 41.9664 141.499 41.4921 141.401C41.147 141.331 40.8236 141.305 40.459 141.255C40.5452 141.266 41.1686 141.394 40.6315 141.277C40.3551 141.216 40.0865 141.144 39.8121 141.072C39.3416 140.948 39.8101 141.063 39.8983 141.111C39.7768 141.046 39.6513 140.993 39.5317 140.924C39.4122 140.856 39.3024 140.786 39.1887 140.714C39.2651 140.762 39.5945 141.019 39.2298 140.728C39.0181 140.56 38.7927 140.407 38.5731 140.249C38.4888 140.19 38.2712 140.005 38.5771 140.268C38.4869 140.19 38.1399 139.828 38.2222 139.937C37.4166 138.87 35.3504 138.822 35.0093 140.333C34.6682 141.843 34.9191 143.237 35.9483 144.482C36.8873 145.615 38.2575 146.599 39.7454 146.992C43.0407 147.865 46.6653 146.619 48.5786 143.971C50.4801 141.338 50.2625 137.731 48.6864 135.017C47.9003 133.662 46.6379 132.414 45.1794 131.695C43.3563 130.798 41.3999 130.563 39.3788 130.384C38.9574 130.347 38.5359 130.312 38.1164 130.267C38.7104 130.33 37.5381 130.169 37.4185 130.145C37.0225 130.062 36.6128 129.966 36.2364 129.816C36.8892 130.077 35.3798 129.317 35.8738 129.6C36.1953 129.785 35.8973 129.622 35.8267 129.557C35.717 129.457 35.6013 129.361 35.4954 129.258C35.3896 129.154 35.2974 129.043 35.1955 128.938C35.6621 129.433 35.3778 129.174 35.2975 129.025C35.1681 128.786 34.8505 128.174 35.1053 128.79C34.9799 128.487 34.874 128.178 34.7917 127.862C34.7544 127.721 34.7427 127.566 34.6937 127.429C34.5545 127.037 34.7152 127.973 34.7054 127.551C34.6976 127.244 34.6545 126.939 34.6525 126.632C34.6505 126.357 34.6584 126.083 34.676 125.808C34.6858 125.649 34.7035 125.49 34.7172 125.331C34.7878 124.539 34.578 125.943 34.7466 125.157C34.876 124.55 35.0112 123.953 35.1994 123.36C35.2994 123.043 35.4092 122.731 35.5288 122.422C35.5876 122.269 35.6621 122.119 35.713 121.964C35.8248 121.629 35.4935 122.385 35.7503 121.882C37.3519 118.732 39.4866 115.842 40.6217 112.482C41.8175 108.938 41.447 105.1 39.1024 102.045C38.0772 100.712 36.8912 99.5271 35.7189 98.3105C35.4523 98.0332 35.1877 97.7559 34.9328 97.4693C34.8054 97.3269 34.678 97.1846 34.5565 97.0385C34.8348 97.375 34.5329 97.0034 34.4937 96.9479C34.0683 96.3599 33.6841 95.759 33.3528 95.1175C33.3156 95.0435 33.098 94.5683 33.2391 94.8937C33.3803 95.2192 33.1803 94.7384 33.1529 94.6608C33.0411 94.352 32.9313 94.0451 32.8373 93.7308C32.7569 93.4571 32.6843 93.1798 32.6236 92.9025C32.5883 92.7435 32.5589 92.5826 32.5275 92.4236C32.3687 91.6434 32.5648 92.9968 32.4942 92.2036C32.4393 91.5897 32.406 90.9777 32.4217 90.3602C32.4295 90.0292 32.4491 89.7001 32.4785 89.3692C32.4942 89.2028 32.5158 89.0382 32.5314 88.8737C32.5648 88.539 32.4472 89.2878 32.5569 88.7498C32.8275 87.4112 33.1999 86.1114 33.741 84.8467C33.5488 85.296 33.9174 84.488 33.9978 84.3327C34.1565 84.0221 34.3232 83.7152 34.4976 83.4138C34.8701 82.7704 35.2798 82.1455 35.7228 81.5409C35.8267 81.3985 35.9326 81.258 36.0404 81.1193C36.0816 81.0657 36.4286 80.6405 36.2266 80.8827C36.0247 81.1249 36.3835 80.7089 36.4266 80.6571C36.5148 80.5573 36.603 80.4593 36.6932 80.3613C37.2284 79.7789 37.8008 79.2242 38.4065 78.7046C38.6398 78.505 38.879 78.309 39.124 78.1204C39.173 78.0816 39.6101 77.7543 39.369 77.9318C39.1279 78.1093 39.6023 77.7709 39.6533 77.734C40.4452 77.1774 41.249 76.6302 41.9959 76.0219C43.3936 74.8866 44.5835 73.3816 45.0147 71.664C45.5087 69.7004 45.1598 67.7554 44.8599 65.7955C44.7579 65.1281 44.654 64.4606 44.5541 63.7913C44.4717 63.244 44.5207 63.5676 44.5384 63.6859C44.5129 63.5047 44.4874 63.3217 44.4619 63.1405C44.3992 62.6838 44.3404 62.2271 44.2855 61.7704C44.1071 60.3042 43.964 58.8343 43.8876 57.3589C43.8111 55.8835 43.7993 54.4561 43.8876 53.0084C43.9307 52.304 43.9895 51.5958 44.0934 50.897C44.0326 51.3148 44.1953 50.3497 44.2091 50.2757C44.2816 49.8948 44.3659 49.514 44.46 49.1368C44.6148 48.5174 44.7971 47.9017 45.0147 47.299C45.3245 46.4411 45.348 46.3764 45.7891 45.5702C46.4928 44.2815 47.0986 43.4791 48.0434 42.5565C50.2155 40.4376 52.7619 39.4854 55.7494 38.8069C58.737 38.1283 61.8715 37.6809 64.7669 36.5013C68.1131 35.1386 70.5204 32.7665 72.6826 30.0652C74.6547 27.6006 76.1112 24.8199 78.0127 22.309C78.9262 21.1017 79.7555 19.7187 80.8846 18.6759C81.1943 18.3893 81.3355 17.9234 81.2061 17.5277C81.2296 17.7219 81.261 17.6775 81.2982 17.3983C81.3453 17.2374 81.3943 17.0766 81.4453 16.9176C81.4688 16.8455 81.4061 16.7808 81.3316 16.7771L81.3335 16.7863Z" fill="black"/>
<path d="M86.3989 11.0972C87.2791 10.7071 88.1769 10.3595 89.0394 9.93238C90.0176 9.44797 90.9194 8.92657 91.8564 8.37005C93.5462 7.36794 95.3242 6.46382 97.1885 5.78711C100.674 4.52246 104.477 3.8439 108.207 4.34126C111.211 4.74063 114.557 5.95906 116.876 7.7747C118.181 8.79715 119.191 9.86027 119.989 11.1194C121 12.7132 121.447 14.5565 122.467 16.1429C124.255 18.9274 127.358 19.7742 130.616 20.0164C133.713 20.2456 136.834 19.9017 139.915 19.641C141.211 19.532 142.515 19.4155 143.818 19.4118C144.128 19.4118 144.436 19.4173 144.746 19.434C144.908 19.4432 145.069 19.4598 145.232 19.4691C145.996 19.5042 144.895 19.4081 145.348 19.4746C146.067 19.58 146.779 19.7353 147.471 19.9517C147.618 19.9979 148.643 20.4065 148.068 20.1495C148.333 20.2678 148.598 20.3843 148.856 20.5156C149.176 20.6783 149.49 20.8521 149.794 21.0407C149.915 21.1146 150.035 21.1923 150.154 21.2699C150.235 21.3236 150.797 21.7488 150.295 21.3568C150.801 21.7506 151.285 22.163 151.736 22.6141C151.964 22.8415 152.175 23.08 152.391 23.3148C152.491 23.4239 152.785 23.8103 152.438 23.3611C152.569 23.5312 152.701 23.7013 152.828 23.8751C153.255 24.463 153.642 25.0787 153.987 25.7129C154.181 26.0679 154.361 26.4303 154.532 26.7963C154.718 27.1957 154.306 26.2047 154.559 26.874C154.626 27.0478 154.698 27.2197 154.765 27.3935C155.047 28.135 155.286 28.8912 155.482 29.6585C155.576 30.0301 155.663 30.4017 155.737 30.7771C155.774 30.9656 155.81 31.1542 155.843 31.3447C155.857 31.4242 155.967 32.1526 155.918 31.7866C155.859 31.3595 155.953 32.1175 155.953 32.1175C155.978 32.3486 156 32.5816 156.018 32.8146C156.049 33.2028 156.07 33.593 156.082 33.9831C156.108 34.8077 156.09 35.6323 156.031 36.4551C156 36.8877 155.953 37.3185 155.904 37.7493C155.89 37.8732 155.808 38.2874 155.91 37.716C155.869 37.949 155.833 38.182 155.79 38.4149C155.631 39.2654 155.424 40.1067 155.175 40.9368C154.508 43.1611 156.678 44.7179 158.829 44.3832C161.136 44.0245 163.41 43.6843 165.856 43.9469C166.397 44.006 165.168 43.8027 166.054 43.9839C166.243 44.0227 166.431 44.0523 166.617 44.0929C167.084 44.1928 167.544 44.313 167.997 44.4516C168.27 44.5348 168.538 44.631 168.807 44.7253C168.891 44.7549 169.328 44.9471 168.881 44.753C169.405 44.9786 169.916 45.2245 170.414 45.4981C170.83 45.7255 171.237 45.9696 171.633 46.2284C171.792 46.332 171.949 46.4392 172.104 46.5465C171.702 46.271 172.202 46.6204 172.296 46.6925C173.086 47.3064 173.823 47.9757 174.507 48.693C174.67 48.865 174.831 49.0388 174.988 49.2144C175.062 49.2995 175.458 49.7599 175.158 49.3956C175.458 49.758 175.736 50.1389 176.005 50.5235C176.56 51.3167 177.052 52.1468 177.489 53.0029C179.353 56.6582 180.002 60.9643 180.116 65.117C180.227 69.1975 179.441 73.7126 181.743 77.4141C183.023 79.4738 185.107 80.5499 187.136 81.8348C187.365 81.9791 187.588 82.1307 187.812 82.2823C187.712 82.2139 187.406 81.9624 187.855 82.3137C188.208 82.5892 188.555 82.8684 188.89 83.1642C189.592 83.7818 190.243 84.4511 190.839 85.1611C191.164 85.5475 190.46 84.6267 190.948 85.309C191.076 85.4883 191.213 85.6621 191.34 85.8415C191.57 86.165 191.791 86.4941 191.999 86.8288C192.232 87.2023 192.452 87.5813 192.658 87.9677C192.762 88.16 192.862 88.356 192.958 88.552C193.017 88.6703 193.073 88.7868 193.128 88.9069C193.007 88.6259 193.013 88.6407 193.144 88.9476C193.456 89.7168 193.738 90.4933 193.961 91.2902C194.067 91.6674 194.161 92.0464 194.242 92.4273C194.297 92.6824 194.34 92.9376 194.391 93.1927C194.512 93.8103 194.367 92.7823 194.432 93.4664C194.512 94.328 194.571 95.1859 194.548 96.0512C194.538 96.4394 194.514 96.8259 194.477 97.2123C194.457 97.4268 194.434 97.6412 194.404 97.8557C194.489 97.2382 194.371 97.9944 194.346 98.1238C193.956 100.135 193.266 101.722 192.401 103.423C190.431 107.296 188.163 111.207 188.361 115.642C188.571 120.322 191.458 124.767 196.727 125.231C198.696 125.405 200.828 124.835 202.414 123.724C203.291 123.108 204.063 122.4 204.565 121.47C204.827 120.982 205.006 120.486 205.098 119.952C205.139 119.719 205.2 119.362 205.214 119.085C205.223 118.854 205.129 117.467 205.165 118.307C205.108 116.973 204.002 115.838 202.548 115.838C201.173 115.838 199.874 116.968 199.931 118.307C199.907 117.739 199.931 118.222 199.901 118.406C199.872 118.591 199.674 118.737 199.972 118.307C199.835 118.503 199.252 119.152 199.776 118.669C199.682 118.756 199.607 118.856 199.511 118.939C199.47 118.976 198.97 119.346 199.348 119.089C199.727 118.832 199.178 119.17 199.137 119.192C198.97 119.283 198.4 119.468 199.092 119.249C198.752 119.357 198.419 119.442 198.076 119.532C197.917 119.575 197.486 119.604 198.237 119.527C198.058 119.545 197.88 119.566 197.7 119.575C197.374 119.592 197.055 119.575 196.729 119.555C197.543 119.603 196.884 119.562 196.686 119.514C196.488 119.466 196.279 119.397 196.079 119.327C196.204 119.372 196.616 119.621 196.222 119.355C196.188 119.333 195.6 118.97 195.994 119.242C196.418 119.534 195.745 119.011 195.726 118.991C195.598 118.87 195.479 118.745 195.359 118.615C195.773 119.061 195.249 118.443 195.202 118.373C195.108 118.229 195.03 118.079 194.94 117.935C194.663 117.486 194.859 117.798 194.912 117.922C194.795 117.646 194.699 117.362 194.616 117.075C194.567 116.907 194.365 115.844 194.442 116.43C194.385 115.994 194.365 115.552 194.367 115.112C194.369 114.672 194.401 114.222 194.451 113.78C194.438 113.902 194.352 114.298 194.465 113.742C194.518 113.479 194.569 113.218 194.634 112.959C195.145 110.902 195.941 109.476 196.92 107.594C197.964 105.586 199.035 103.552 199.703 101.398C200.809 97.8409 200.803 94.01 199.929 90.4101C199.054 86.8103 197.112 83.2881 194.475 80.4519C193.193 79.0726 191.678 77.8708 190.055 76.8613C189.647 76.608 189.229 76.3713 188.816 76.1272C188.582 75.9886 188.349 75.8499 188.122 75.702C188.053 75.6576 187.528 75.2601 187.812 75.4912C187.643 75.3544 187.498 75.2028 187.336 75.0641C186.777 74.5871 187.461 75.3784 187.089 74.7794C186.992 74.6259 186.896 74.4669 186.798 74.3153C186.402 73.6996 186.877 74.6962 186.644 74.0065C186.495 73.5665 186.375 73.1339 186.269 72.6827C186.14 72.1373 186.218 72.4738 186.24 72.6088C186.197 72.3296 186.175 72.043 186.153 71.762C186.083 70.8079 186.093 69.852 186.112 68.8961C186.157 66.7643 186.169 64.6381 185.989 62.5118C185.609 58.0134 184.579 53.5945 182.378 49.5602C180.302 45.757 176.96 42.3642 172.949 40.3341C170.714 39.2044 168.369 38.5388 165.856 38.2726C162.979 37.9656 160.071 38.4944 157.251 38.9807C158.468 40.1289 159.687 41.2789 160.905 42.4271C162.667 36.1149 162.161 29.065 158.934 23.2372C155.835 17.6405 149.931 14.085 143.168 14.4105C140.072 14.5584 137.006 15.0539 133.909 15.2036C133.088 15.2443 132.262 15.2628 131.439 15.2443C131.125 15.2369 130.812 15.2258 130.498 15.2055C130.271 15.1907 130.043 15.1685 129.818 15.1519C129.257 15.1112 130.21 15.2369 129.622 15.1278C129.034 15.0187 128.448 14.869 127.86 14.7007C127.271 14.5325 128.244 14.967 127.781 14.6582C127.691 14.599 127.564 14.5417 127.469 14.4937C127.43 14.4733 126.968 14.1609 127.295 14.3994C127.605 14.6249 127.16 14.2699 127.105 14.2145C125.868 12.9535 125.47 10.9659 124.611 9.48125C123.684 7.88009 122.426 6.39911 120.987 5.18252C118.132 2.76784 114.531 1.08162 110.764 0.397526C106.092 -0.451126 101.254 0.116491 96.8415 1.75278C94.5459 2.60513 92.3563 3.66456 90.2979 4.94771C89.2394 5.60777 88.22 6.26968 87.3633 7.14792C86.5067 8.02615 85.8304 8.94321 85.1678 9.94163C84.6542 10.7163 85.6383 11.4392 86.3969 11.1009L86.3989 11.0972Z" fill="black"/>
<path d="M196.39 132.931C197.853 133.531 198.752 134.793 199.137 136.117C199.521 137.441 199.346 138.924 198.805 139.88C198.321 140.734 197.96 141.163 197.265 141.779C196.724 142.257 195.926 142.718 195.04 143.147C194.548 143.385 193.328 143.738 192.45 143.914C191.572 144.09 190.825 144.162 189.625 144.162C184.934 144.156 180.033 142.966 175.499 144.663C170.393 146.575 167.981 151.226 167.578 156.176C167.336 159.134 168.23 161.808 170.84 163.588C172.872 164.975 175.56 165.312 178.01 165.35C179.612 165.374 180.502 162.982 178.881 162.322C177.981 161.956 177.065 161.603 176.193 161.179C175.791 160.983 175.397 160.771 175.019 160.532C174.407 160.148 174.243 160.051 173.864 159.695C173.747 159.584 173.621 159.463 173.517 159.338C173.821 159.707 173.364 159.055 173.355 159.04C173.262 158.892 173.204 158.694 173.149 158.376C173.041 157.749 173.078 157.084 173.121 156.455C173.168 155.745 173.162 155.79 173.28 155.207C173.374 154.747 173.49 154.292 173.633 153.843C173.717 153.575 173.815 153.312 173.915 153.048C174.211 152.28 173.69 153.373 174.1 152.659C174.695 151.618 174.921 151.323 175.713 150.566C176.126 150.173 177.224 149.649 177.822 149.476C178.295 149.339 178.777 149.239 179.265 149.158C180.165 149.008 178.793 149.154 179.714 149.111C180.071 149.095 180.425 149.065 180.784 149.056C185.469 148.93 190.096 149.892 194.693 148.546C199.143 147.242 203.212 144.167 203.694 139.56C204.12 135.5 201.589 131.181 197.014 130.77C195.834 130.665 195.285 132.478 196.392 132.933L196.39 132.931Z" fill="black"/>
<path d="M138.598 126.804C137.699 127.196 137.21 128.078 136.85 128.903C136.418 129.894 135.983 130.912 135.685 131.948C135.134 133.858 134.895 135.921 134.787 137.892C134.56 142.034 135.34 146.003 137.142 149.781C139.61 154.954 143.76 159.931 149.382 162.244C153.269 163.843 158.229 164.733 161.914 162.272C163.079 161.494 163.151 159.438 161.477 159.123C159.76 158.8 158.088 158.665 156.343 158.569C156.235 158.563 155.189 158.465 155.737 158.535C155.347 158.485 154.957 158.415 154.573 158.334C153.863 158.184 153.165 157.988 152.485 157.748C152.328 157.692 152.17 157.635 152.015 157.574C152.493 157.764 152.087 157.6 151.999 157.557C151.666 157.396 151.329 157.248 151.001 157.078C150.388 156.76 149.798 156.407 149.227 156.024C148.961 155.845 148.698 155.66 148.439 155.472C148.923 155.825 148.067 155.17 147.973 155.093C147.453 154.667 146.953 154.22 146.477 153.754C146.001 153.288 145.556 152.813 145.124 152.317C145.024 152.203 144.926 152.086 144.826 151.97C145.075 152.288 144.564 151.661 144.826 151.97C144.618 151.704 144.411 151.437 144.211 151.165C143.489 150.186 142.835 149.161 142.248 148.106C140.71 145.338 139.726 142.156 139.43 139.016C139.239 136.992 139.279 134.947 139.531 132.928C139.653 131.961 139.706 130.988 139.861 130.023C140.016 129.058 140.21 128.013 139.684 127.076C139.471 126.693 138.971 126.641 138.594 126.806L138.598 126.804Z" fill="black"/>
<path d="M97.4395 134.39C97.2337 135.339 96.9396 136.302 96.8102 137.262C96.6671 138.328 96.7534 139.445 96.7024 140.521C96.6103 142.492 96.4143 144.474 96.0751 146.423C95.8085 147.952 95.4419 149.472 94.9911 150.962C94.5402 152.452 94.0305 153.854 93.3836 155.106C93.0562 155.738 92.6955 156.357 92.2898 156.949C92.1447 157.16 91.7173 157.725 91.7154 157.727C91.8898 157.526 91.5429 157.91 91.5056 157.949C91.3606 158.099 91.2194 158.249 91.0665 158.393C90.9136 158.537 90.7607 158.665 90.6058 158.802C90.5176 158.879 90.0864 159.188 90.4725 158.918C90.8587 158.648 90.2569 159.044 90.1765 159.092C89.9707 159.212 89.759 159.316 89.5473 159.423C89.4512 159.471 89.3473 159.508 89.2493 159.556C89.5767 159.401 89.6629 159.412 89.2709 159.534C88.82 159.672 88.3672 159.798 87.9006 159.891C87.6164 159.946 87.0871 159.994 87.7026 159.942C87.3792 159.97 87.0577 160 86.7323 160.009C86.4637 160.016 86.1951 160.014 85.9266 160.003C85.8011 159.998 84.9092 159.926 85.2483 159.963C85.611 160.003 84.7563 159.878 84.6484 159.855C84.2819 159.783 83.9192 159.695 83.5605 159.593C83.2017 159.491 82.8195 159.362 82.4548 159.229C82.0667 159.084 82.8116 159.389 82.4274 159.214C82.2412 159.129 82.053 159.047 81.8668 158.959C81.0826 158.581 80.3338 158.14 79.6261 157.644C79.8966 157.835 79.5242 157.566 79.4967 157.546C79.2713 157.37 79.0557 157.187 78.8283 157.014C78.3578 156.651 78.1324 156.52 77.6305 156.113C76.7484 155.398 75.8662 154.723 74.941 154.057C73.6275 153.114 71.5849 154.684 72.1279 156.097C74.5587 162.403 82.792 166.393 89.7061 164.786C96.7122 163.159 99.3449 155.485 100.533 149.566C101.031 147.085 101.254 144.641 101.117 142.117C101.046 140.813 100.917 139.514 100.764 138.218C100.611 136.921 100.106 135.67 99.6194 134.392C99.2724 133.481 97.6767 133.277 97.4336 134.392L97.4395 134.39Z" fill="black"/>
<path d="M63.4202 135.49C65.6471 138.031 67.0624 141.509 67.0801 144.809C67.0879 146.46 66.837 147.625 66.2646 149.285C66.1901 149.503 66.1038 149.718 66.0215 149.934C65.996 150.003 65.8294 150.356 65.9999 149.993C65.8372 150.337 65.6588 150.674 65.4628 151.003C65.2668 151.332 65.057 151.65 64.8296 151.959C64.7924 152.009 64.3062 152.584 64.6748 152.168C64.5219 152.34 64.3689 152.51 64.2082 152.674C63.9534 152.935 63.6868 153.183 63.4064 153.417C63.2653 153.536 62.4635 154.081 63.1477 153.637C62.5811 154.005 62.0185 154.366 61.4128 154.677C61.1246 154.824 60.8325 154.963 60.5365 155.094C60.3856 155.161 60.2288 155.22 60.0798 155.289C59.6877 155.472 60.762 155.033 60.1327 155.261L59.4231 155.544C59.7877 155.399 59.8681 155.366 59.6603 155.446C59.4976 155.49 59.3388 155.564 59.18 155.618C58.7879 155.753 58.3939 155.875 57.994 155.986C57.3177 156.172 56.6296 156.326 55.9357 156.442C55.7965 156.466 55.6553 156.485 55.5142 156.509C54.783 156.629 56.2062 156.457 55.4672 156.513C55.0418 156.544 54.6183 156.585 54.189 156.598C53.4794 156.62 52.7678 156.603 52.0601 156.538C51.919 156.525 51.7778 156.509 51.6367 156.494C52.5071 156.585 51.7798 156.505 51.6053 156.476C51.1897 156.403 50.7761 156.315 50.3703 156.206C49.9959 156.106 49.6332 155.984 49.2667 155.862C49.0706 155.797 48.6492 155.568 49.3137 155.884C49.1236 155.793 48.9295 155.714 48.7413 155.621C48.363 155.436 47.9925 155.231 47.6376 155.006C47.4573 154.893 47.2828 154.773 47.1084 154.651C47.5024 154.926 47.3377 154.802 47.0554 154.582C46.8104 154.394 45.8106 153.617 46.5261 154.192C46.3536 154.053 46.1772 153.919 46.0106 153.774C45.6675 153.48 45.3441 153.168 45.0402 152.839C44.2012 151.929 43.4739 151.478 42.2664 151.092C41.3078 150.785 40.4217 151.452 40.1041 152.249C39.5886 153.541 39.7787 154.662 40.4825 155.873C41.0059 156.773 41.6646 157.626 42.386 158.393C43.7307 159.822 45.7675 160.772 47.6376 161.42C51.1486 162.632 55.1888 162.514 58.7664 161.63C62.0421 160.822 65.304 159.219 67.5819 156.812C70.4283 153.804 71.8338 149.77 71.381 145.757C71.1262 143.505 70.4675 141.34 69.3129 139.347C68.1582 137.354 66.2646 135.718 64.2239 134.507C63.5456 134.104 62.9634 134.973 63.4182 135.49H63.4202Z" fill="black"/>
<path d="M111.358 49.3587C108.915 48.8539 106.249 48.6542 103.989 47.7871C101.729 46.92 99.4371 45.598 97.7336 44.0061C96.6691 43.0132 96.281 42.5417 95.5322 41.4213C95.2067 40.9332 94.897 40.4395 94.6206 39.9255C94.5422 39.7794 94.4697 39.6297 94.3932 39.4818C94.3618 39.4226 94.1893 39.038 94.352 39.4097C94.2187 39.1064 94.1011 38.7958 93.9933 38.4834C93.7894 37.8936 93.6267 37.2927 93.5091 36.6825C93.4856 36.5605 93.4621 36.4366 93.4425 36.3146C93.517 36.775 93.4523 36.37 93.4464 36.2794C93.4248 35.9189 93.3974 35.5621 93.3974 35.1997C93.3974 34.9168 93.4091 34.6358 93.4307 34.3529C93.4425 34.192 93.4581 34.0293 93.4777 33.8685C93.4719 33.9165 93.4189 34.2327 93.4699 33.9369C93.5816 33.299 93.7404 32.6685 93.9541 32.0547C94.007 31.9031 94.0658 31.7515 94.1227 31.6017C94.2776 31.2005 93.8522 32.099 94.1952 31.4316C94.3403 31.1487 94.4873 30.8677 94.6559 30.594C94.8245 30.3204 95.0009 30.0671 95.1891 29.8119C94.9382 30.1521 95.1597 29.8397 95.2205 29.775C95.3538 29.6326 95.4871 29.4902 95.6204 29.3497C95.8595 29.0983 96.0987 28.8505 96.3653 28.6231C96.4515 28.5491 96.5417 28.4752 96.6319 28.4049C96.8279 28.2552 96.4006 28.5159 96.7848 28.3162C97.0632 28.172 97.3278 28.0129 97.614 27.8817C97.1494 28.0961 98.0786 27.6912 98.0531 27.706C98.3531 27.5489 98.6353 27.3325 98.847 27.0774C99.6057 26.1566 99.8233 24.4649 98.4079 23.8658C96.5809 23.093 94.5912 23.8862 93.0445 24.9271C91.6762 25.8479 90.598 27.0645 89.8178 28.4696C88.2025 31.3798 87.736 34.6801 88.3182 37.9028C88.9004 41.1255 90.5314 43.9044 92.774 46.2285C94.9343 48.4656 97.9061 50.4995 101.015 51.3592C104.35 52.2818 108.586 52.7348 111.54 50.6769C112.022 50.3404 112.06 49.5047 111.358 49.3605V49.3587Z" fill="black"/>
<path d="M101.072 136.267C101.576 139.682 101.98 143.13 102.366 146.56C102.772 150.171 103.203 153.347 103.564 156.96C103.695 158.287 104.673 159.428 106.181 159.428C107.453 159.428 108.982 158.291 108.798 156.96C107.788 149.629 106.061 142.328 102.999 135.501C102.489 134.366 100.923 135.268 101.07 136.269L101.072 136.267Z" fill="black"/>
<path d="M106.941 155.533C101.374 157.267 98.7431 162.442 98.1492 167.628C97.8257 170.44 98.0708 173.271 98.2276 176.087C98.3844 178.903 98.5648 181.924 98.753 184.842C99.5155 196.64 100.927 208.421 102.378 220.16C102.781 223.43 103.203 226.699 103.642 229.966C103.869 231.66 104.101 233.353 104.338 235.047C104.604 236.959 104.657 238.919 105.624 240.646C106.653 242.489 109.921 242.106 110.409 240.056C110.787 238.462 110.483 237.007 110.27 235.409C110.076 233.958 109.886 232.507 109.697 231.055C109.339 228.273 108.992 225.488 108.656 222.702C107.972 217.009 107.339 211.311 106.759 205.609C105.61 194.336 104.604 183.048 103.556 171.768C103.297 168.983 103.015 166.221 103.995 163.525C104.797 161.32 106.488 159.169 108.119 157.441C108.872 156.642 108.161 155.152 106.941 155.531V155.533Z" fill="black"/>
<path d="M88.6809 162.498C87.5537 162.636 86.6421 163.146 85.7326 163.79C84.6544 164.554 83.5742 165.419 82.6764 166.367C80.8572 168.286 79.0067 170.182 77.2169 172.123C73.6276 176.015 70.2225 180.073 66.7292 184.043C65.3845 185.572 66.2078 187.998 68.4857 188.044C72.6827 188.127 76.868 188.97 80.6887 190.631V186.537C77.0876 188.822 73.6433 191.285 70.2284 193.809C69.8481 194.09 70.7205 193.456 70.0167 193.962C69.8697 194.068 69.7207 194.175 69.5737 194.282C69.1796 194.567 68.7837 194.854 68.3936 195.142C67.8858 195.517 67.3605 195.891 66.9292 196.346C65.7765 197.557 65.9922 198.697 66.5724 200.025C69.6854 207.162 72.4122 214.458 75.6271 221.554C76.5916 223.684 77.5129 225.841 78.5343 227.947C79.0694 229.047 79.7046 230.11 80.2946 231.187C80.8847 232.263 81.661 233.239 82.4921 234.217C83.3233 235.195 85.4267 234.413 85.2934 233.122C85.1895 232.124 85.1307 231.135 84.8328 230.168C84.5818 229.351 84.3094 228.539 84.0467 227.725C83.4821 225.971 82.7725 224.277 82.0746 222.565C80.722 219.25 79.2733 215.979 77.8129 212.707C75.4899 207.498 73.1846 202.282 70.8479 197.078L71.1086 198.964C71.0341 199.243 70.8949 199.489 70.691 199.7C70.7499 199.639 70.8126 199.581 70.8773 199.524C71.0459 199.404 71.1948 199.25 71.3556 199.121C71.7927 198.768 72.2475 198.435 72.6984 198.102C73.7237 197.346 74.7313 196.571 75.7526 195.809C78.1755 193.997 80.6769 192.282 83.2273 190.631C84.6191 189.73 85.0896 187.327 83.2273 186.537C78.5558 184.559 73.6178 183.444 68.4876 183.357C69.0738 184.69 69.658 186.023 70.2441 187.358C73.7276 183.375 77.2816 179.439 80.6985 175.407C82.4059 173.391 84.0271 171.304 85.6894 169.255C86.5206 168.231 87.2106 167.16 87.8556 166.022C88.4398 164.988 88.9573 163.864 88.8769 162.682C88.871 162.594 88.7926 162.485 88.6809 162.498Z" fill="black"/>
<path d="M156.433 163.196C155.745 164.071 156.198 165.275 156.504 166.203C156.849 167.249 157.282 168.246 157.749 169.25C158.623 171.13 159.542 173.023 160.654 174.791C162.93 178.413 165.59 181.828 168.481 185.034L169.652 180.852C167.507 181.255 165.407 182.026 163.482 182.996C161.557 183.967 159.638 185.167 158.221 186.663C157.094 187.852 156.89 189.512 157.923 190.814C158.648 191.729 159.846 192.276 160.848 192.884C163.008 194.195 165.168 195.508 167.329 196.819L166.384 193.419C163.232 198.962 160.662 204.817 158.786 210.854C157.903 213.694 157.09 216.599 156.639 219.531C156.374 221.249 156.265 222.861 156.547 224.582C156.676 225.372 156.847 226.198 157.239 226.912C157.631 227.626 158.317 228.019 158.927 228.533C159.911 229.363 161.936 228.879 161.795 227.413C161.769 227.148 161.791 226.962 161.82 226.74C161.91 226.085 161.936 225.743 161.834 225.085C161.765 224.645 161.701 224.161 161.697 223.619C161.687 222.36 161.779 221.051 161.979 219.951C162.485 217.17 163.241 214.415 164.088 211.71C165.802 206.239 168.093 200.966 170.932 195.928C171.62 194.707 171.228 193.275 169.987 192.528C168.524 191.647 167.064 190.767 165.602 189.887C164.898 189.464 164.194 189.04 163.49 188.617C163.165 188.421 162.841 188.225 162.516 188.029C162.3 187.898 162.085 187.767 161.869 187.635C162.091 187.791 162.257 187.994 162.367 188.245V189.562C162.277 189.876 161.963 190.044 162.377 189.758C162.587 189.612 162.777 189.421 162.979 189.262C163.269 189.033 163.398 188.933 163.706 188.724C164.484 188.197 165.302 187.72 166.148 187.299C167.687 186.533 169.275 186.058 171.061 185.675C173.117 185.235 173.488 182.824 172.231 181.493C169.505 178.607 167.087 175.525 164.888 172.265C163.778 170.62 162.641 168.998 161.616 167.303C161.107 166.458 160.599 165.617 160.062 164.786C159.525 163.956 158.938 162.815 157.811 162.666C157.209 162.586 156.79 162.738 156.429 163.196H156.433Z" fill="black"/>
<path d="M227 246.5H4C4 252.5 4.9 266.3 8.5 273.5C13 282.5 21 279.5 27.5 277.5C32.7 275.9 36 276.833 37 277.5C36.5 281.5 37 284.5 42.5 282.5C48 280.5 60 282.5 64 282.5C67.2 282.5 68.3333 279.167 68.5 277.5L87 269C92.1667 268.833 104.2 268.6 111 269C117.8 269.4 139.167 272.167 149 273.5L150.5 277.5H182V272.5C184.167 272 189.6 271.3 194 272.5C199.5 274 208 277 217 272.5C224.2 268.9 226.667 253.667 227 246.5Z" fill="#F6F6F6"/>
<path d="M51.915 157.002C46.8887 155.046 41.9232 160.373 39.8473 164.078C38.5829 166.334 38.1026 168.765 37.3479 171.189C36.5931 173.613 35.6306 176.196 34.5838 178.635C34.2643 179.38 34.2819 179.343 33.9702 180.02C33.6801 180.652 33.3821 181.282 33.0763 181.909C32.5098 183.074 31.9217 184.228 31.314 185.372C30.0712 187.711 28.7499 190.011 27.3777 192.283C24.5921 196.902 21.6026 201.408 18.6425 205.927C12.5949 215.158 6.79828 224.523 2.77179 234.725C1.57796 237.754 0.648772 240.806 0.20378 244.016C-0.241211 247.226 0.111645 250.437 0.69974 253.643C0.983986 255.196 1.31724 256.74 1.5858 258.295C1.6995 258.961 1.80144 259.626 1.90141 260.294C1.90926 260.346 1.98767 260.9 1.9269 260.468C1.95042 260.636 1.97395 260.802 1.99747 260.971C2.05236 261.361 2.10725 261.753 2.16214 262.143C2.60125 265.243 3.0482 268.374 4.1695 271.334C6.08669 276.387 10.0171 281.266 15.7863 282.625C21.7829 284.038 27.2209 281.115 32.9862 280.172C33.5997 280.072 32.7195 280.175 33.339 280.133C33.6409 280.112 33.9408 280.09 34.2447 280.083C34.5975 280.074 34.9504 280.081 35.3013 280.101C35.4522 280.111 35.6032 280.122 35.7541 280.135C35.6189 280.124 35.1621 280.044 35.809 280.151C37.4537 280.423 39.3415 279.735 39.7492 278.042C40.106 276.566 39.2748 274.623 37.5125 274.325C34.5309 273.821 31.6296 274.128 28.7146 274.856C26.1466 275.498 23.6472 276.355 21.0263 276.807C20.4048 276.914 21.3085 276.801 20.6832 276.851C20.3813 276.875 20.0814 276.897 19.7795 276.908C19.4776 276.919 19.1777 276.918 18.8758 276.908C18.7248 276.903 18.5739 276.894 18.4249 276.882C18.3583 276.877 17.7565 276.794 18.1034 276.855C18.3936 276.906 17.6486 276.751 17.5173 276.72C17.2428 276.653 16.9743 276.577 16.7077 276.49C16.5744 276.448 16.445 276.4 16.3137 276.354C16.3666 276.372 16.7665 276.57 16.4509 276.4C16.1686 276.248 15.8687 276.126 15.5864 275.969C15.3041 275.812 15.0453 275.623 14.765 275.468C14.4553 275.298 14.816 275.518 14.863 275.551C14.7513 275.47 14.6435 275.383 14.5376 275.298C14.0691 274.923 13.6261 274.516 13.2144 274.085C13.0223 273.883 12.8419 273.675 12.6557 273.467C13.0066 273.858 12.5871 273.375 12.4754 273.222C12.1166 272.735 11.7853 272.232 11.4815 271.713C11.3423 271.472 11.207 271.23 11.0796 270.986C10.9934 270.82 10.6346 270.06 10.8757 270.609C10.6072 269.997 10.3798 269.37 10.1739 268.738C9.74072 267.401 9.42707 266.033 9.17419 264.656C9.05265 263.992 8.94679 263.326 8.84682 262.659C8.84878 262.672 8.7684 262.124 8.80957 262.404C8.85074 262.683 8.77232 262.135 8.77428 262.148C8.71351 261.703 8.65274 261.255 8.59197 260.81C8.38026 259.246 8.16855 257.68 7.8941 256.123C7.64122 254.682 7.34129 253.251 7.08841 251.811C7.02764 251.465 6.97079 251.121 6.9159 250.774C6.81005 250.11 6.86493 250.424 6.88454 250.57C6.86101 250.397 6.84141 250.225 6.82181 250.051C6.73555 249.3 6.67674 248.548 6.65714 247.792C6.6395 247.102 6.65714 246.41 6.71007 245.723C6.73555 245.381 6.77084 245.04 6.81201 244.7C6.8022 244.776 6.75516 245.064 6.81201 244.691C6.84729 244.465 6.8865 244.24 6.92767 244.016C7.20015 242.548 7.60201 241.106 8.06269 239.682C8.90562 237.077 9.91519 234.516 11.0188 232C11.0482 231.933 11.3031 231.357 11.16 231.678C11.0306 231.967 11.2364 231.51 11.2423 231.495C11.3697 231.218 11.4952 230.942 11.6246 230.665C11.9029 230.068 12.1872 229.474 12.4773 228.881C13.0321 227.744 13.6084 226.616 14.2004 225.496C16.6116 220.938 19.2992 216.517 22.0574 212.139C27.5031 203.497 33.2488 194.975 37.6831 185.812C39.9688 181.088 41.9448 176.22 43.319 171.185C43.6169 170.096 43.8287 168.978 44.1815 167.904C44.256 167.678 44.3364 167.454 44.4226 167.232C44.4814 167.081 44.5422 166.929 44.6089 166.78C44.5873 166.828 44.452 167.116 44.5893 166.837C44.8363 166.334 45.1009 165.84 45.3969 165.36C46.4496 163.651 47.6885 162.29 49.4332 161.438C49.692 161.312 49.4097 161.442 49.3626 161.458C49.4704 161.42 49.5783 161.383 49.688 161.353C49.9056 161.294 50.1291 161.259 50.3448 161.199C50.5839 161.135 50.8113 161 51.0524 160.944C51.0152 160.954 50.7015 161.068 50.974 161.016C51.2465 160.965 50.9466 161.002 50.9034 161.007C51.0485 160.989 51.2014 160.989 51.3484 160.983C52.4109 160.954 53.3323 160.236 53.4597 159.225C53.595 158.145 52.9382 157.398 51.9208 157.001L51.915 157.002Z" fill="black"/>
<path d="M51.7445 235.809C50.29 236.744 48.808 237.772 47.6024 238.989C46.2792 240.324 45.1971 242.023 44.1522 243.556C41.8214 246.974 40.1414 250.894 38.6045 254.677C35.4837 262.367 33.6175 270.555 33.3136 278.796C33.2431 280.693 33.0529 282.873 33.7743 284.676C34.3605 286.138 35.4622 287.327 37.0833 287.804C38.7535 288.296 40.3237 287.763 41.9116 287.307C46.9947 285.848 51.3819 285.319 56.7375 285.526C60.9796 285.689 66.3861 287.103 69.7089 283.705C71.8711 281.494 71.5967 278.685 70.989 275.962C70.8831 275.483 70.7812 275.004 70.693 274.521C70.64 274.233 70.593 273.943 70.544 273.652C70.3891 272.728 70.5714 274 70.5146 273.442C70.4009 272.319 70.2813 271.206 70.244 270.078C70.2068 268.951 70.2244 267.732 70.297 266.56C70.3342 265.974 70.3852 265.39 70.4479 264.805C70.4695 264.611 70.495 264.417 70.5165 264.223C70.5655 263.861 70.5675 263.835 70.5244 264.145C70.5538 263.951 70.5832 263.757 70.6165 263.565C71.0007 261.244 71.6006 258.955 72.4063 256.733C72.5905 256.225 72.7866 255.718 72.9924 255.217C73.0865 254.989 73.1826 254.762 73.2806 254.535C73.0806 254.999 73.4707 254.122 73.5158 254.026C74.0255 252.956 74.5842 251.905 75.1938 250.883C75.8035 249.861 76.4602 248.864 77.164 247.897C77.5168 247.414 77.8795 246.937 78.2578 246.472C78.6126 246.033 77.8089 246.976 78.444 246.253C78.7087 245.952 78.9714 245.649 79.2399 245.349C80.2848 244.192 80.5357 242.354 79.2399 241.232C78.0814 240.23 76.0015 240 74.8743 241.232C68.9875 247.657 65.357 255.524 64.2024 263.931C63.6299 268.1 63.7691 272.284 64.5238 276.426C64.6042 276.864 64.6944 277.3 64.7885 277.735C64.8453 277.996 64.9002 278.256 64.9531 278.519C65.0806 279.16 64.9904 278.792 64.9806 278.657C65.0061 278.959 65.0414 279.293 64.9904 279.595C65.0845 279.036 64.9394 279.669 64.9081 279.682L64.9982 279.443C64.8022 279.73 64.8375 279.702 65.1021 279.36C64.8943 279.55 64.4337 279.732 65.0766 279.432C64.9512 279.491 64.8042 279.573 64.6807 279.645C65.3452 279.266 64.8355 279.578 64.5807 279.645C64.4239 279.685 64.2631 279.711 64.1063 279.748C63.3771 279.924 64.5532 279.804 64.1024 279.748C63.2183 279.643 62.2558 279.778 61.354 279.697C59.0859 279.491 56.8492 279.24 54.5674 279.231C51.9112 279.22 49.2745 279.449 46.6477 279.809C44.1993 280.146 41.7842 280.665 39.42 281.353C39.1966 281.418 38.9672 281.479 38.7457 281.553L38.4105 281.64C38.7829 281.573 39.1417 281.643 39.4867 281.854C39.716 281.978 39.9611 282.189 40.0905 282.398C40.4904 283.045 40.2453 282.642 40.1375 282.429L40.1081 282.316C40.0395 281.958 40.0454 282.008 40.1257 282.47C40.0885 282.44 40.1042 282.087 40.1003 282.01C40.0807 281.501 40.0826 280.993 40.0865 280.484C40.1003 278.715 40.2081 276.947 40.3904 275.187C40.4374 274.732 40.4884 274.277 40.5453 273.823C40.5747 273.593 40.606 273.364 40.6354 273.137C40.7021 272.586 40.5139 273.921 40.6511 273.027C40.8001 272.051 40.9628 271.077 41.149 270.106C41.8783 266.288 42.8643 262.483 44.015 258.759C44.6482 256.713 45.3578 254.686 46.1498 252.688C46.3399 252.211 46.534 251.735 46.732 251.26C46.8398 251.005 46.9476 250.748 47.0594 250.493C47.1025 250.395 47.424 249.672 47.2005 250.166C47.6102 249.256 48.0474 248.359 48.4904 247.464C48.855 246.729 49.2353 245.83 49.7862 244.726C50.2175 243.865 50.6664 243.01 51.1506 242.175C52.0601 240.607 52.5345 239.054 53.3951 237.367C53.8754 236.428 52.8247 235.104 51.7387 235.805L51.7445 235.809Z" fill="black"/>
<path d="M52.5188 239.618L52.6756 239.516C52.3679 239.608 52.4914 239.555 53.0442 239.353C53.6891 239.089 52.6266 239.453 53.3284 239.231C53.693 239.117 53.5519 239.168 53.4108 239.189C53.646 239.154 53.8969 239.157 54.1341 239.159C54.3713 239.161 54.6242 239.179 54.8673 239.2C54.7144 239.187 54.3047 239.109 54.9947 239.226C55.8749 239.372 56.7472 239.51 57.6372 239.592C59.968 239.804 62.4263 240.255 64.857 240.849C67.429 241.478 69.9617 242.184 72.4219 243.138C73.1766 243.43 74.2979 243.926 75.2369 244.371C76.3367 244.893 77.4286 245.427 78.5302 245.946C79.7829 246.538 81.1257 247.017 82.4626 246.296C83.2938 245.848 83.8525 245.087 83.8898 244.168C83.9799 241.962 81.8745 241.195 80.1436 240.357C75.4133 238.068 70.5184 236.01 65.2589 235.093C62.3027 234.577 59.0623 234.032 56.0513 234.308C53.7068 234.522 50.3938 235.025 49.7626 237.615C49.4235 239.006 51.0956 240.549 52.5227 239.616L52.5188 239.618Z" fill="black"/>
<path d="M76.1152 246.762C78.0833 248.239 81.2198 247.518 83.5565 247.335C85.9677 247.146 88.377 246.936 90.7842 246.708C95.5948 246.253 100.398 245.736 105.195 245.174C114.249 244.112 123.263 242.69 132.257 241.248C141.484 239.769 150.997 238.309 159.274 233.938C163.33 231.797 166.729 228.892 169.854 225.68C172.773 222.682 175.539 219.427 178.993 216.948C178.665 217.183 179.455 216.636 179.398 216.673C179.641 216.508 179.888 216.347 180.137 216.192C180.68 215.852 181.239 215.534 181.81 215.238C182.219 215.027 182.939 214.691 183.182 214.591C183.468 214.474 184.264 214.201 184.752 214.056C187.049 213.376 188.714 213.171 191.156 213.241C192.427 213.278 193.079 213.346 194.185 213.555C195.291 213.764 196.432 214.066 197.514 214.441C198.288 214.709 199.329 215.177 200.274 215.7C201.35 216.295 202.362 216.961 203.446 217.545C204.437 218.078 205.735 217.848 206.419 216.985C207.164 216.046 206.964 215.014 206.239 214.13C204.873 212.463 202.863 211.344 200.85 210.473C198.802 209.587 196.671 208.922 194.442 208.593C189.966 207.933 185.369 208.282 181.167 209.935C172.475 213.354 167.695 221.287 160.595 226.666C159.117 227.785 156.902 229.066 154.967 229.981C152.899 230.961 151.099 231.615 148.784 232.314C144.264 233.679 139.59 234.535 134.921 235.3C126.209 236.728 117.47 238.024 108.719 239.207C103.438 239.921 97.8982 240.766 92.7838 241.413C90.0354 241.76 87.2811 242.086 84.5269 242.385C83.2429 242.526 81.9569 242.659 80.671 242.787C79.1752 242.935 77.1992 242.944 76.1132 244.079C75.4487 244.772 75.2272 246.094 76.1132 246.758L76.1152 246.762Z" fill="black"/>
<path d="M191.362 147.741C191.803 148.078 192.193 148.483 192.632 148.808C193.097 149.152 193.689 149.379 194.183 149.696C194.895 150.15 195.543 150.727 196.106 151.382C196.045 151.312 196.506 151.883 196.361 151.696C196.488 151.861 196.612 152.029 196.729 152.199C197.018 152.615 197.276 153.049 197.515 153.493C197.737 153.904 197.943 154.322 198.133 154.747C198.013 154.477 198.278 155.102 198.321 155.207C198.437 155.488 198.549 155.769 198.658 156.052C200.223 160.103 201.046 164.359 201.809 168.601C202.789 174.064 203.651 179.489 205.504 184.764C207.539 190.558 209.765 196.294 211.806 202.088C213.847 207.883 216.011 214.191 217.942 220.293C219.873 226.394 221.492 232.209 222.494 238.321C222.715 239.675 222.87 240.836 223.025 242.469C223.166 243.951 223.256 245.438 223.29 246.926C223.323 248.415 223.296 250.003 223.198 251.538C223.154 252.218 223.096 252.9 223.023 253.579C222.98 253.974 222.935 254.372 222.882 254.766C222.939 254.389 222.892 254.69 222.882 254.766C222.849 254.991 222.811 255.217 222.774 255.441C222.317 258.17 221.637 260.893 220.569 263.469C220.481 263.683 220.218 264.219 220.469 263.711C220.326 264.001 220.192 264.293 220.043 264.58C219.749 265.153 219.434 265.715 219.093 266.262C218.803 266.728 218.495 267.183 218.165 267.625C218.024 267.815 217.511 268.398 217.938 267.932C217.724 268.167 217.521 268.407 217.301 268.638C216.897 269.06 216.47 269.463 216.017 269.84C215.811 270.012 215.378 270.328 215.86 269.99C215.566 270.197 215.264 270.395 214.952 270.579C214.48 270.861 213.986 271.081 213.494 271.325C214.176 270.986 213.353 271.369 213.149 271.434C212.827 271.535 212.5 271.626 212.171 271.704C211.841 271.781 211.51 271.828 211.183 271.894C210.785 271.975 211.357 271.872 211.398 271.87C211.257 271.879 211.114 271.896 210.973 271.907C210.31 271.957 209.644 271.961 208.981 271.929C208.695 271.916 208.409 271.896 208.125 271.868C207.982 271.855 207.839 271.839 207.695 271.824C207.823 271.837 208.427 271.937 207.764 271.828C207.139 271.726 206.515 271.613 205.896 271.478C200.476 270.289 195.347 267.934 189.704 267.736C188.224 267.684 186.73 267.856 185.279 268.119C183.47 268.448 182.27 270.587 182.823 272.199C183.458 274.05 185.201 274.828 187.149 274.516C187.218 274.505 187.708 274.427 187.263 274.49C186.789 274.558 187.406 274.481 187.522 274.471C187.812 274.447 188.102 274.433 188.394 274.425C189.121 274.407 189.853 274.434 190.578 274.494C190.884 274.518 191.44 274.584 190.799 274.499C191.141 274.545 191.482 274.597 191.821 274.656C192.507 274.775 193.187 274.919 193.863 275.078C196.565 275.716 199.188 276.609 201.867 277.319C207.533 278.822 213.837 279.273 218.904 275.917C223.735 272.719 226.599 267.618 228.136 262.346C229.949 256.127 230.343 249.559 229.753 243.153C228.557 230.144 223.986 217.64 219.642 205.328C217.436 199.075 215.141 192.853 212.773 186.654C211.843 184.22 210.92 181.782 210.199 179.284C209.37 176.418 208.87 173.495 208.307 170.575C207.376 165.742 206.313 160.697 204.414 156.102C203.549 154.011 202.279 152.047 200.795 150.293C199.372 148.608 197.788 147.54 195.522 146.706C195.034 146.527 194.512 146.331 193.999 146.227C193.387 146.103 192.626 146.238 192.001 146.292C191.317 146.349 190.699 147.231 191.366 147.739L191.362 147.741Z" fill="black"/>
<path d="M172.32 246.226C172.573 246.479 172.708 246.623 172.904 246.902C173 247.041 173.08 247.189 173.176 247.326C173.225 247.396 173.261 247.475 173.304 247.549C173.088 247.18 173.423 247.806 173.457 247.867C173.651 248.215 173.892 248.539 174.074 248.895C174.115 248.975 174.341 249.469 174.241 249.232C174.147 249.014 174.368 249.568 174.407 249.674C174.515 249.968 174.609 250.26 174.725 250.552C175.021 251.292 174.627 250.26 174.874 250.916C175.039 251.358 175.199 251.802 175.339 252.253C175.652 253.268 175.893 254.304 176.089 255.344C176.183 255.84 176.266 256.337 176.342 256.835C176.401 257.206 176.313 256.648 176.309 256.622C176.352 256.949 176.395 257.277 176.458 257.6C176.525 257.942 176.603 258.282 176.67 258.624C176.897 259.774 177.089 260.932 177.262 262.089C177.281 262.226 177.301 262.363 177.322 262.5C177.317 262.461 177.246 261.938 177.297 262.322C177.334 262.6 177.373 262.875 177.409 263.152C177.495 263.803 177.575 264.454 177.654 265.107C177.799 266.325 177.934 267.544 178.065 268.762C178.344 271.319 178.542 273.908 179.089 276.428C179.11 276.526 179.112 276.714 179.165 276.801C179.036 276.587 179.108 276.123 179.179 275.938C179.373 275.433 179.749 275.021 180.21 274.738C179.988 274.873 181.1 274.316 181.037 274.412C180.914 274.601 178.918 274.455 178.622 274.462C176.872 274.496 175.121 274.531 173.372 274.564C166.631 274.693 159.889 274.825 153.148 274.954C152.074 274.974 151.656 274.642 153.118 275.764L154.151 276.557L154.087 276.32L154.144 276.685C154.13 276.515 154.118 276.344 154.108 276.174C154.059 275.377 154.044 274.581 154.044 273.782C154.044 272.122 154.126 270.463 154.173 268.805C154.273 265.26 154.163 261.646 153.036 258.234C152.52 256.672 150.697 255.513 148.951 256.047C147.273 256.559 146.093 258.22 146.632 259.9C146.875 260.656 147.075 261.422 147.22 262.198C147.261 262.418 147.302 262.642 147.332 262.864C147.322 262.788 147.281 262.491 147.322 262.864C147.371 263.311 147.41 263.759 147.437 264.208C147.537 265.854 147.494 267.503 147.43 269.148C147.365 270.794 147.271 272.465 147.267 274.126C147.261 275.89 147.151 277.888 148.155 279.445C149.543 281.597 152.195 281.405 154.504 281.379C156.384 281.357 158.264 281.337 160.144 281.314C163.904 281.272 167.664 281.227 171.424 281.185C173.368 281.163 175.313 281.141 177.258 281.118C179.153 281.096 181.423 281.366 183.199 280.66C185.707 279.661 186.416 277.385 185.993 275.024C185.94 274.73 185.871 274.438 185.809 274.146C185.634 273.338 185.83 274.533 185.752 273.88C185.673 273.227 185.575 272.513 185.485 271.829C185.103 268.925 184.746 266.018 184.327 263.117C183.958 260.575 183.69 257.855 182.856 255.404C181.353 250.983 179.081 245.118 173.492 244.318C172.343 244.153 171.42 245.334 172.314 246.227L172.32 246.226Z" fill="black"/>
<path d="M71.1144 277.938C73.4864 277.565 75.7427 276.385 77.9402 275.464C80.1495 274.538 82.3235 273.545 84.5465 272.648C88.7847 270.936 93.0876 269.331 97.4316 267.875C106.412 264.866 115.651 262.548 125.029 260.947C129.606 260.166 134.215 259.564 138.847 259.15C143.479 258.735 147.806 258.484 152.232 257.737C156.494 257.02 160.781 255.76 164.406 253.472C168.166 251.098 170.82 247.616 174.36 245.02C177.914 242.413 182.364 241.306 186.661 240.982C189.106 240.799 191.564 240.819 194.011 240.938C195.187 240.995 196.363 241.076 197.537 241.171C198.162 241.221 198.817 241.333 199.445 241.335C200.172 241.339 200.879 241.134 201.579 240.971C203.253 240.585 203.742 238.079 202.083 237.334C201.548 237.094 201.001 236.794 200.434 236.626C199.821 236.445 199.133 236.441 198.494 236.384C197.321 236.28 196.149 236.19 194.975 236.118C192.84 235.99 190.7 235.927 188.561 235.999C184.048 236.151 179.592 236.889 175.478 238.688C171.363 240.487 168.219 243.759 164.917 246.758C161.806 249.583 158.343 251.282 154.255 252.29C150.033 253.329 145.993 253.606 141.631 253.98C136.779 254.396 131.945 254.947 127.138 255.698C117.621 257.186 108.235 259.416 99.1057 262.356C93.8972 264.033 88.7553 265.913 83.7702 268.115C81.3766 269.172 79.0105 270.28 76.6699 271.439C74.3293 272.599 71.5966 273.937 69.8186 275.842C68.9031 276.823 69.8068 278.142 71.1104 277.936L71.1144 277.938Z" fill="black"/>
<path d="M188.8 229.741C190.503 230.073 192.309 229.789 194.052 229.916C195.794 230.044 197.484 230.219 199.158 230.582C200.832 230.944 202.526 231.565 204.19 232.168C205.919 232.795 207.988 233.318 209.711 232.427C211.434 231.536 210.524 229.245 208.764 229.13C207.868 229.073 207.127 229.16 206.245 228.91C205.453 228.687 204.692 228.378 203.92 228.102C202.316 227.531 200.662 227.104 198.97 226.836C197.204 226.555 195.483 226.416 193.697 226.555C191.911 226.694 189.984 226.786 188.512 227.664C187.692 228.154 187.737 229.532 188.8 229.739V229.741Z" fill="black"/>
<path d="M188.059 219.659C190.78 220.622 193.861 220.766 196.712 221.289C199.562 221.813 202.501 222.558 205.316 223.458C207.695 224.22 208.752 220.624 206.355 219.904C203.402 219.021 200.393 218.318 197.339 217.83C194.285 217.342 191.033 216.843 188.059 217.597C186.906 217.889 187.063 219.305 188.059 219.659Z" fill="black"/>
<path d="M65.3158 235.254C65.0375 233.359 64.3769 231.486 63.1654 229.94C61.803 228.202 60.1955 226.671 58.4391 225.288C56.563 223.811 54.5694 222.523 52.4758 221.336C51.4211 220.738 50.3547 220.16 49.2805 219.596C48.2062 219.032 47.0026 218.226 45.7519 217.985C44.2934 217.706 43.1682 219.311 44.2699 220.387C45.0991 221.197 46.2596 221.661 47.2849 222.217C48.3101 222.774 49.3197 223.334 50.3233 223.917C52.2719 225.048 54.2028 226.239 56.0475 227.518C57.7098 228.674 59.2781 229.987 60.6111 231.479C61.8245 232.838 63.0223 234.23 63.8182 235.851C64.2455 236.722 65.4335 236.038 65.3178 235.254H65.3158Z" fill="black"/>
<path d="M42.9036 229.548C43.031 229.471 43.0447 229.426 42.8644 229.441C42.9879 229.43 43.2878 229.598 43.4113 229.641C43.7014 229.741 43.9425 229.822 44.1954 230.011C44.8482 230.497 45.3265 231.24 45.8813 231.823C47.3947 233.411 48.9061 234.999 50.4194 236.585C51.9955 238.24 54.6714 235.742 53.0169 234.136C51.923 233.074 50.8291 232.013 49.7353 230.952C48.7218 229.968 47.7495 228.82 46.5164 228.073C45.1795 227.263 41.7901 226.64 42.0822 229.103C42.1253 229.463 42.5233 229.783 42.9055 229.548H42.9036Z" fill="black"/>
<path d="M85.6306 270.962C87.244 271.857 89.2141 271.578 91.0097 271.609C93.1053 271.646 95.2087 271.508 97.3063 271.487C101.448 271.447 105.604 271.408 109.746 271.504C117.882 271.694 125.901 272.645 133.939 273.789C136.279 274.122 138.62 274.481 140.966 274.775C142.096 274.917 143.225 275.056 144.354 275.196C144.756 275.246 145.162 275.283 145.559 275.359C145.734 275.392 145.901 275.437 146.073 275.483C145.993 275.461 145.84 275.374 145.803 275.309C147.251 277.816 151.235 275.597 149.851 273.077C148.853 271.26 146.716 271.029 144.801 270.751C142.672 270.445 140.541 270.151 138.406 269.879C134.068 269.328 129.734 268.745 125.384 268.291C116.77 267.392 107.857 266.913 99.2195 267.78C96.7829 268.026 94.3423 268.302 91.9232 268.673C90.7431 268.854 89.5787 269.158 88.4182 269.431C87.3322 269.688 86.3952 270.006 85.6071 270.788C85.5561 270.84 85.564 270.925 85.6306 270.962Z" fill="black"/>
<path d="M100.178 173.672C99.2723 177.182 100.203 180.722 102.344 183.671C104.747 186.981 108.596 188.978 112.502 190.35C119.15 192.685 127.513 193.47 133.676 189.508C135.266 188.486 136.691 187.264 137.92 185.868C139.494 184.08 140.611 182.268 141.511 180.107C142.321 178.16 139.114 176.39 137.724 178.027C135.669 180.443 134.15 182.654 131.631 184.629C131.22 184.953 131.472 184.742 131.565 184.677C131.427 184.771 131.288 184.866 131.147 184.956C130.869 185.136 130.582 185.308 130.292 185.47C130.002 185.633 129.708 185.783 129.406 185.923C129.255 185.993 129.104 186.06 128.951 186.127C129.206 186.016 129.106 186.073 128.906 186.143C128.263 186.365 127.617 186.563 126.948 186.707C126.613 186.779 126.278 186.837 125.938 186.89C126.517 186.798 125.38 186.942 125.233 186.955C123.647 187.079 122.045 187.14 120.455 187.07C120.128 187.055 119.799 187.036 119.471 187.007C119.297 186.992 119.119 186.975 118.946 186.955C119.422 187.016 119.009 186.959 118.919 186.942C117.982 186.755 117.041 186.598 116.111 186.38C112.836 185.616 109.689 184.44 107.082 182.377C104.301 180.177 101.903 177.398 101.556 173.852C101.487 173.151 100.374 172.899 100.174 173.676L100.178 173.672Z" fill="black"/>
<path d="M143.544 156.019C143.133 156.442 142.635 156.697 142.195 157.093C141.57 157.653 141.313 158.299 141.053 159.058C140.619 160.318 140.192 161.58 139.775 162.845C138.949 165.339 138.424 167.946 137.824 170.496C136.581 175.769 135.803 181.147 135.019 186.496C133.433 197.325 132.245 208.203 131.506 219.113C131.106 225.004 130.943 230.896 130.91 236.798C130.902 238.301 132.317 239.741 133.958 239.673C135.599 239.605 136.946 238.41 137.007 236.798C137.404 226.23 138.093 215.646 139.151 205.119C139.686 199.796 140.323 194.482 141.066 189.179C141.184 188.334 141.392 186.92 141.572 185.722C141.778 184.363 141.99 183.004 142.209 181.647C142.652 178.908 143.193 176.181 143.578 173.436C143.746 172.236 143.928 170.965 144.148 169.521C144.368 168.077 144.611 166.635 144.834 165.193C145.071 163.668 145.181 162.122 145.352 160.588C145.44 159.794 145.657 158.922 145.428 158.134C145.232 157.459 144.746 156.923 144.526 156.261C144.401 155.882 143.856 155.699 143.546 156.017L143.544 156.019Z" fill="black"/>
<path d="M121.759 47.2528C121.338 46.6352 120.654 46.1711 120.156 45.5702C119.623 44.925 119.119 43.9783 118.813 43.2942C117.907 41.2734 117.35 38.9234 117.409 36.7971C117.435 35.8875 117.607 35.1183 117.97 34.216C118.039 34.0478 118.037 34.0515 117.964 34.2253L118.086 33.9868C118.219 33.7538 118.344 33.5209 118.489 33.2934C118.609 33.1067 118.738 32.9237 118.874 32.7443C118.983 32.6001 118.981 32.6019 118.866 32.7517L119.046 32.5539C119.86 31.7477 120.024 31.5887 121.093 31.108C121.297 31.0156 121.504 30.9231 121.712 30.8381C121.871 30.766 121.875 30.7623 121.722 30.8307L122.016 30.7438C122.651 30.5848 123.116 30.2668 123.688 29.9968C124.396 29.664 124.708 28.7747 124.512 28.0869C123.92 25.9921 121.681 25.6371 119.722 26.0586C118.217 26.3822 116.804 27.3067 115.706 28.2995C113.395 30.3888 112.181 33.3286 112.001 36.3072C111.805 39.5613 112.977 42.7728 114.873 45.4667C115.733 46.6907 116.758 47.6928 118.191 48.3085C119.381 48.8206 120.922 48.9981 121.761 47.8832C121.891 47.7113 121.881 47.4247 121.761 47.2509L121.759 47.2528Z" fill="black"/>
<path d="M128.703 44.7252C128.499 45.1634 128.211 45.6405 128.085 46.1027C127.94 46.637 127.926 47.249 127.871 47.7981C127.76 48.9315 127.881 50.0705 128.028 51.1964C128.334 53.5372 128.924 55.7004 129.885 57.8784C131.822 62.2714 134.707 66.2004 138.459 69.3972C142.313 72.6808 146.716 74.9846 151.701 76.3435C153.038 76.7078 154.363 77.0794 155.679 77.5028C156.7 77.8319 155.157 77.2347 156.131 77.6766C156.378 77.7894 156.625 77.9003 156.868 78.0224C157.425 78.3015 157.964 78.6122 158.482 78.9524C158.603 79.0319 159.303 79.5588 158.639 79.0448C158.844 79.2038 159.05 79.3628 159.252 79.5292C159.652 79.862 160.036 80.2115 160.403 80.5776C160.769 80.9436 161.116 81.3301 161.454 81.7239C160.913 81.0934 161.473 81.7627 161.558 81.8736C161.767 82.151 161.967 82.4339 162.161 82.7223C162.847 83.7392 163.449 84.8171 163.986 85.9098C164.104 86.1465 164.216 86.3868 164.326 86.6272C163.992 85.8932 164.451 86.9545 164.504 87.0857C164.733 87.6663 164.945 88.2543 165.137 88.8478C165.521 90.0366 165.949 91.2088 166.274 92.4143C166.599 93.6198 167.291 94.7236 167.74 95.8089C168.056 96.5725 168.695 97.1531 169.612 97.1531C170.451 97.1531 171.279 96.5855 171.485 95.8089C171.775 94.7181 172.249 93.5791 172.253 92.4457C172.257 91.1367 172.02 89.7833 171.822 88.4928C171.461 86.1409 170.52 83.8298 169.479 81.6795C167.462 77.5176 163.763 73.7828 159.309 71.9117C156.559 70.7561 153.62 70.2255 150.809 69.2456C150.588 69.1679 150.37 69.0884 150.15 69.007C149.978 68.9423 149.378 68.7112 150.062 68.9775L149.239 68.6502C149.627 68.8074 149.641 68.8111 149.282 68.665C149.025 68.5541 148.768 68.4468 148.514 68.3303C147.412 67.8348 146.344 67.2746 145.314 66.6571C144.84 66.3723 144.373 66.0765 143.917 65.7677C143.687 65.6143 143.462 65.4553 143.238 65.2963C143.811 65.703 143.068 65.165 143.005 65.1151C142.056 64.3866 141.151 63.6064 140.294 62.7817C138.457 61.0123 137.593 59.9474 136.205 57.9394C135.487 56.9003 134.835 55.8224 134.256 54.7094C133.709 53.6592 133.245 52.6367 132.817 51.6346C132.325 50.4791 131.972 49.2976 131.596 48.1069C131.22 46.9162 130.785 45.8346 130.22 44.7252C129.953 44.2001 128.965 44.1706 128.709 44.7252H128.703Z" fill="black"/>
<path d="M168.905 112.327C167.866 112.584 167.374 113.455 167.056 114.361C166.65 115.522 166.372 116.75 166.398 117.974C166.449 120.462 167.123 122.92 168.356 125.12C169.589 127.32 171.861 129.193 174.349 130.092C175.595 130.543 176.995 130.713 178.32 130.576C180.01 130.402 181.102 129.563 181.745 128.119C182.031 127.479 181.431 126.562 180.735 126.442C179.74 126.27 178.875 126.211 177.858 126.268C177.056 126.312 176.285 126.201 175.556 125.88C173.878 125.138 172.694 123.665 171.745 122.21C170.734 120.657 170.171 118.954 169.907 117.155C169.771 116.225 169.66 115.332 169.618 114.392C169.585 113.625 169.45 112.945 168.938 112.336C168.93 112.327 168.913 112.323 168.901 112.327H168.905Z" fill="black"/>
</g>
<defs>
<clipPath id="clip0_182_350">
<rect width="230" height="288" fill="white"/>
</clipPath>
</defs>
</svg>
